  0
SECTION
  2
HEADER
  9
$ANGBASE
  50
0.0
  9
$ANGDIR
  70
1
  9
$MEASUREMENT
  70
0
  0
ENDSEC
  0
SECTION
  2
TABLES
  0
TABLE
  2
LTYPE
  70
4
  0
LTYPE
  5
40F
  2
CONTINUOUS
  70
0
  3
Solid line
  72
65
  73
0
  40
0.0
  0
LTYPE
  5
410
  2
DASHDOT
 70
0
  3
Dash Dot ____ _ ____ _
 72
65
 73
4
 40
2.0
 49
1.25
 49
-0.25
 49
0.25
 49
-0.25
  0
LTYPE
  5
411
  2
DASHED
 70
0
  3
Dashed __ __ __ __ __
 72
65
 73
2
 40
0.75
 49
0.5
 49
-0.25
  0
LTYPE
  5
43B
  2
DOTTED
 70
0
  3
Dotted .  .  .  .
 72
65
 73
2
 40
0.2
 49
0.0
 49
-0.2
  0
ENDTAB
  0
TABLE
  2
STYLE
  70
4
  0
STYLE
  2
KICAD
  70
0
  40
0
  41
1
  42
1
  50
0
  71
0
  3
isocp.shx
  0
STYLE
  2
KICADB
  70
0
  40
0
  41
1
  42
1
  50
0
  71
0
  3
isocp.shx
  0
STYLE
  2
KICADI
  70
0
  40
0
  41
1
  42
1
  50
15
  71
0
  3
isocp.shx
  0
STYLE
  2
KICADBI
  70
0
  40
0
  41
1
  42
1
  50
15
  71
0
  3
isocp.shx
  0
ENDTAB
  0
TABLE
  2
LAYER
  70
1
  0
LAYER
  2
BLACK
  70
0
  62
7
  6
CONTINUOUS
  0
ENDTAB
  0
ENDSEC
  0
SECTION
  2
ENTITIES
0
LINE
8
BLACK
6
CONTINUOUS
10
5.0266
20
-4.94331
11
5.0312
21
-4.94565
0
LINE
8
BLACK
6
CONTINUOUS
10
5.0312
20
-4.94565
11
5.03485
21
-4.9493
0
LINE
8
BLACK
6
CONTINUOUS
10
5.03485
20
-4.9493
11
5.03719
21
-4.9539
0
LINE
8
BLACK
6
CONTINUOUS
10
5.03719
20
-4.9539
11
5.038
21
-4.959
0
LINE
8
BLACK
6
CONTINUOUS
10
5.038
20
-4.959
11
5.03719
21
-4.9641
0
LINE
8
BLACK
6
CONTINUOUS
10
5.03719
20
-4.9641
11
5.03485
21
-4.9687
0
LINE
8
BLACK
6
CONTINUOUS
10
5.03485
20
-4.9687
11
5.0312
21
-4.97235
0
LINE
8
BLACK
6
CONTINUOUS
10
5.0312
20
-4.97235
11
5.0266
21
-4.97469
0
LINE
8
BLACK
6
CONTINUOUS
10
5.0266
20
-4.97469
11
5.0215
21
-4.9755
0
LINE
8
BLACK
6
CONTINUOUS
10
5.0215
20
-4.9755
11
5.0164
21
-4.97469
0
LINE
8
BLACK
6
CONTINUOUS
10
5.0164
20
-4.97469
11
5.0118
21
-4.97235
0
LINE
8
BLACK
6
CONTINUOUS
10
5.0118
20
-4.97235
11
5.00815
21
-4.9687
0
LINE
8
BLACK
6
CONTINUOUS
10
5.00815
20
-4.9687
11
5.00581
21
-4.9641
0
LINE
8
BLACK
6
CONTINUOUS
10
5.00581
20
-4.9641
11
5.005
21
-4.959
0
LINE
8
BLACK
6
CONTINUOUS
10
5.005
20
-4.959
11
5.00581
21
-4.9539
0
LINE
8
BLACK
6
CONTINUOUS
10
5.00581
20
-4.9539
11
5.00815
21
-4.9493
0
LINE
8
BLACK
6
CONTINUOUS
10
5.00815
20
-4.9493
11
5.0118
21
-4.94565
0
LINE
8
BLACK
6
CONTINUOUS
10
5.0118
20
-4.94565
11
5.0164
21
-4.94331
0
LINE
8
BLACK
6
CONTINUOUS
10
5.0164
20
-4.94331
11
5.0215
21
-4.9425
0
LINE
8
BLACK
6
CONTINUOUS
10
5.0215
20
-4.9425
11
5.0266
21
-4.94331
0
LINE
8
BLACK
6
CONTINUOUS
10
6.4545
20
-4.89379
11
6.46219
21
-4.89612
0
LINE
8
BLACK
6
CONTINUOUS
10
6.46219
20
-4.89612
11
6.46928
21
-4.89991
0
LINE
8
BLACK
6
CONTINUOUS
10
6.46928
20
-4.89991
11
6.47549
21
-4.90501
0
LINE
8
BLACK
6
CONTINUOUS
10
6.47549
20
-4.90501
11
6.48059
21
-4.91122
0
LINE
8
BLACK
6
CONTINUOUS
10
6.48059
20
-4.91122
11
6.48438
21
-4.91831
0
LINE
8
BLACK
6
CONTINUOUS
10
6.48438
20
-4.91831
11
6.48671
21
-4.926
0
LINE
8
BLACK
6
CONTINUOUS
10
6.48671
20
-4.926
11
6.4875
21
-4.934
0
LINE
8
BLACK
6
CONTINUOUS
10
6.4875
20
-4.934
11
6.48671
21
-4.942
0
LINE
8
BLACK
6
CONTINUOUS
10
6.48671
20
-4.942
11
6.48438
21
-4.94969
0
LINE
8
BLACK
6
CONTINUOUS
10
6.48438
20
-4.94969
11
6.48059
21
-4.95678
0
LINE
8
BLACK
6
CONTINUOUS
10
6.48059
20
-4.95678
11
6.47549
21
-4.96299
0
LINE
8
BLACK
6
CONTINUOUS
10
6.47549
20
-4.96299
11
6.46928
21
-4.96809
0
LINE
8
BLACK
6
CONTINUOUS
10
6.46928
20
-4.96809
11
6.46219
21
-4.97188
0
LINE
8
BLACK
6
CONTINUOUS
10
6.46219
20
-4.97188
11
6.4545
21
-4.97421
0
LINE
8
BLACK
6
CONTINUOUS
10
6.4545
20
-4.97421
11
6.4465
21
-4.975
0
LINE
8
BLACK
6
CONTINUOUS
10
6.4465
20
-4.975
11
6.4385
21
-4.97421
0
LINE
8
BLACK
6
CONTINUOUS
10
6.4385
20
-4.97421
11
6.43081
21
-4.97188
0
LINE
8
BLACK
6
CONTINUOUS
10
6.43081
20
-4.97188
11
6.42372
21
-4.96809
0
LINE
8
BLACK
6
CONTINUOUS
10
6.42372
20
-4.96809
11
6.41751
21
-4.96299
0
LINE
8
BLACK
6
CONTINUOUS
10
6.41751
20
-4.96299
11
6.41241
21
-4.95678
0
LINE
8
BLACK
6
CONTINUOUS
10
6.41241
20
-4.95678
11
6.40862
21
-4.94969
0
LINE
8
BLACK
6
CONTINUOUS
10
6.40862
20
-4.94969
11
6.40629
21
-4.942
0
LINE
8
BLACK
6
CONTINUOUS
10
6.40629
20
-4.942
11
6.4055
21
-4.934
0
LINE
8
BLACK
6
CONTINUOUS
10
6.4055
20
-4.934
11
6.40629
21
-4.926
0
LINE
8
BLACK
6
CONTINUOUS
10
6.40629
20
-4.926
11
6.40862
21
-4.91831
0
LINE
8
BLACK
6
CONTINUOUS
10
6.40862
20
-4.91831
11
6.41241
21
-4.91122
0
LINE
8
BLACK
6
CONTINUOUS
10
6.41241
20
-4.91122
11
6.41751
21
-4.90501
0
LINE
8
BLACK
6
CONTINUOUS
10
6.41751
20
-4.90501
11
6.42372
21
-4.89991
0
LINE
8
BLACK
6
CONTINUOUS
10
6.42372
20
-4.89991
11
6.43081
21
-4.89612
0
LINE
8
BLACK
6
CONTINUOUS
10
6.43081
20
-4.89612
11
6.4385
21
-4.89379
0
LINE
8
BLACK
6
CONTINUOUS
10
6.4385
20
-4.89379
11
6.4465
21
-4.893
0
LINE
8
BLACK
6
CONTINUOUS
10
6.4465
20
-4.893
11
6.4545
21
-4.89379
0
LINE
8
BLACK
6
CONTINUOUS
10
6.3545
20
-4.89379
11
6.36219
21
-4.89612
0
LINE
8
BLACK
6
CONTINUOUS
10
6.36219
20
-4.89612
11
6.36928
21
-4.89991
0
LINE
8
BLACK
6
CONTINUOUS
10
6.36928
20
-4.89991
11
6.37549
21
-4.90501
0
LINE
8
BLACK
6
CONTINUOUS
10
6.37549
20
-4.90501
11
6.38059
21
-4.91122
0
LINE
8
BLACK
6
CONTINUOUS
10
6.38059
20
-4.91122
11
6.38438
21
-4.91831
0
LINE
8
BLACK
6
CONTINUOUS
10
6.38438
20
-4.91831
11
6.38671
21
-4.926
0
LINE
8
BLACK
6
CONTINUOUS
10
6.38671
20
-4.926
11
6.3875
21
-4.934
0
LINE
8
BLACK
6
CONTINUOUS
10
6.3875
20
-4.934
11
6.38671
21
-4.942
0
LINE
8
BLACK
6
CONTINUOUS
10
6.38671
20
-4.942
11
6.38438
21
-4.94969
0
LINE
8
BLACK
6
CONTINUOUS
10
6.38438
20
-4.94969
11
6.38059
21
-4.95678
0
LINE
8
BLACK
6
CONTINUOUS
10
6.38059
20
-4.95678
11
6.37549
21
-4.96299
0
LINE
8
BLACK
6
CONTINUOUS
10
6.37549
20
-4.96299
11
6.36928
21
-4.96809
0
LINE
8
BLACK
6
CONTINUOUS
10
6.36928
20
-4.96809
11
6.36219
21
-4.97188
0
LINE
8
BLACK
6
CONTINUOUS
10
6.36219
20
-4.97188
11
6.3545
21
-4.97421
0
LINE
8
BLACK
6
CONTINUOUS
10
6.3545
20
-4.97421
11
6.3465
21
-4.975
0
LINE
8
BLACK
6
CONTINUOUS
10
6.3465
20
-4.975
11
6.3385
21
-4.97421
0
LINE
8
BLACK
6
CONTINUOUS
10
6.3385
20
-4.97421
11
6.33081
21
-4.97188
0
LINE
8
BLACK
6
CONTINUOUS
10
6.33081
20
-4.97188
11
6.32372
21
-4.96809
0
LINE
8
BLACK
6
CONTINUOUS
10
6.32372
20
-4.96809
11
6.31751
21
-4.96299
0
LINE
8
BLACK
6
CONTINUOUS
10
6.31751
20
-4.96299
11
6.31241
21
-4.95678
0
LINE
8
BLACK
6
CONTINUOUS
10
6.31241
20
-4.95678
11
6.30862
21
-4.94969
0
LINE
8
BLACK
6
CONTINUOUS
10
6.30862
20
-4.94969
11
6.30629
21
-4.942
0
LINE
8
BLACK
6
CONTINUOUS
10
6.30629
20
-4.942
11
6.3055
21
-4.934
0
LINE
8
BLACK
6
CONTINUOUS
10
6.3055
20
-4.934
11
6.30629
21
-4.926
0
LINE
8
BLACK
6
CONTINUOUS
10
6.30629
20
-4.926
11
6.30862
21
-4.91831
0
LINE
8
BLACK
6
CONTINUOUS
10
6.30862
20
-4.91831
11
6.31241
21
-4.91122
0
LINE
8
BLACK
6
CONTINUOUS
10
6.31241
20
-4.91122
11
6.31751
21
-4.90501
0
LINE
8
BLACK
6
CONTINUOUS
10
6.31751
20
-4.90501
11
6.32372
21
-4.89991
0
LINE
8
BLACK
6
CONTINUOUS
10
6.32372
20
-4.89991
11
6.33081
21
-4.89612
0
LINE
8
BLACK
6
CONTINUOUS
10
6.33081
20
-4.89612
11
6.3385
21
-4.89379
0
LINE
8
BLACK
6
CONTINUOUS
10
6.3385
20
-4.89379
11
6.3465
21
-4.893
0
LINE
8
BLACK
6
CONTINUOUS
10
6.3465
20
-4.893
11
6.3545
21
-4.89379
0
LINE
8
BLACK
6
CONTINUOUS
10
6.2545
20
-4.89379
11
6.26219
21
-4.89612
0
LINE
8
BLACK
6
CONTINUOUS
10
6.26219
20
-4.89612
11
6.26928
21
-4.89991
0
LINE
8
BLACK
6
CONTINUOUS
10
6.26928
20
-4.89991
11
6.27549
21
-4.90501
0
LINE
8
BLACK
6
CONTINUOUS
10
6.27549
20
-4.90501
11
6.28059
21
-4.91122
0
LINE
8
BLACK
6
CONTINUOUS
10
6.28059
20
-4.91122
11
6.28438
21
-4.91831
0
LINE
8
BLACK
6
CONTINUOUS
10
6.28438
20
-4.91831
11
6.28671
21
-4.926
0
LINE
8
BLACK
6
CONTINUOUS
10
6.28671
20
-4.926
11
6.2875
21
-4.934
0
LINE
8
BLACK
6
CONTINUOUS
10
6.2875
20
-4.934
11
6.28671
21
-4.942
0
LINE
8
BLACK
6
CONTINUOUS
10
6.28671
20
-4.942
11
6.28438
21
-4.94969
0
LINE
8
BLACK
6
CONTINUOUS
10
6.28438
20
-4.94969
11
6.28059
21
-4.95678
0
LINE
8
BLACK
6
CONTINUOUS
10
6.28059
20
-4.95678
11
6.27549
21
-4.96299
0
LINE
8
BLACK
6
CONTINUOUS
10
6.27549
20
-4.96299
11
6.26928
21
-4.96809
0
LINE
8
BLACK
6
CONTINUOUS
10
6.26928
20
-4.96809
11
6.26219
21
-4.97188
0
LINE
8
BLACK
6
CONTINUOUS
10
6.26219
20
-4.97188
11
6.2545
21
-4.97421
0
LINE
8
BLACK
6
CONTINUOUS
10
6.2545
20
-4.97421
11
6.2465
21
-4.975
0
LINE
8
BLACK
6
CONTINUOUS
10
6.2465
20
-4.975
11
6.2385
21
-4.97421
0
LINE
8
BLACK
6
CONTINUOUS
10
6.2385
20
-4.97421
11
6.23081
21
-4.97188
0
LINE
8
BLACK
6
CONTINUOUS
10
6.23081
20
-4.97188
11
6.22372
21
-4.96809
0
LINE
8
BLACK
6
CONTINUOUS
10
6.22372
20
-4.96809
11
6.21751
21
-4.96299
0
LINE
8
BLACK
6
CONTINUOUS
10
6.21751
20
-4.96299
11
6.21241
21
-4.95678
0
LINE
8
BLACK
6
CONTINUOUS
10
6.21241
20
-4.95678
11
6.20862
21
-4.94969
0
LINE
8
BLACK
6
CONTINUOUS
10
6.20862
20
-4.94969
11
6.20629
21
-4.942
0
LINE
8
BLACK
6
CONTINUOUS
10
6.20629
20
-4.942
11
6.2055
21
-4.934
0
LINE
8
BLACK
6
CONTINUOUS
10
6.2055
20
-4.934
11
6.20629
21
-4.926
0
LINE
8
BLACK
6
CONTINUOUS
10
6.20629
20
-4.926
11
6.20862
21
-4.91831
0
LINE
8
BLACK
6
CONTINUOUS
10
6.20862
20
-4.91831
11
6.21241
21
-4.91122
0
LINE
8
BLACK
6
CONTINUOUS
10
6.21241
20
-4.91122
11
6.21751
21
-4.90501
0
LINE
8
BLACK
6
CONTINUOUS
10
6.21751
20
-4.90501
11
6.22372
21
-4.89991
0
LINE
8
BLACK
6
CONTINUOUS
10
6.22372
20
-4.89991
11
6.23081
21
-4.89612
0
LINE
8
BLACK
6
CONTINUOUS
10
6.23081
20
-4.89612
11
6.2385
21
-4.89379
0
LINE
8
BLACK
6
CONTINUOUS
10
6.2385
20
-4.89379
11
6.2465
21
-4.893
0
LINE
8
BLACK
6
CONTINUOUS
10
6.2465
20
-4.893
11
6.2545
21
-4.89379
0
LINE
8
BLACK
6
CONTINUOUS
10
6.1545
20
-4.89379
11
6.16219
21
-4.89612
0
LINE
8
BLACK
6
CONTINUOUS
10
6.16219
20
-4.89612
11
6.16928
21
-4.89991
0
LINE
8
BLACK
6
CONTINUOUS
10
6.16928
20
-4.89991
11
6.17549
21
-4.90501
0
LINE
8
BLACK
6
CONTINUOUS
10
6.17549
20
-4.90501
11
6.18059
21
-4.91122
0
LINE
8
BLACK
6
CONTINUOUS
10
6.18059
20
-4.91122
11
6.18438
21
-4.91831
0
LINE
8
BLACK
6
CONTINUOUS
10
6.18438
20
-4.91831
11
6.18671
21
-4.926
0
LINE
8
BLACK
6
CONTINUOUS
10
6.18671
20
-4.926
11
6.1875
21
-4.934
0
LINE
8
BLACK
6
CONTINUOUS
10
6.1875
20
-4.934
11
6.18671
21
-4.942
0
LINE
8
BLACK
6
CONTINUOUS
10
6.18671
20
-4.942
11
6.18438
21
-4.94969
0
LINE
8
BLACK
6
CONTINUOUS
10
6.18438
20
-4.94969
11
6.18059
21
-4.95678
0
LINE
8
BLACK
6
CONTINUOUS
10
6.18059
20
-4.95678
11
6.17549
21
-4.96299
0
LINE
8
BLACK
6
CONTINUOUS
10
6.17549
20
-4.96299
11
6.16928
21
-4.96809
0
LINE
8
BLACK
6
CONTINUOUS
10
6.16928
20
-4.96809
11
6.16219
21
-4.97188
0
LINE
8
BLACK
6
CONTINUOUS
10
6.16219
20
-4.97188
11
6.1545
21
-4.97421
0
LINE
8
BLACK
6
CONTINUOUS
10
6.1545
20
-4.97421
11
6.1465
21
-4.975
0
LINE
8
BLACK
6
CONTINUOUS
10
6.1465
20
-4.975
11
6.1385
21
-4.97421
0
LINE
8
BLACK
6
CONTINUOUS
10
6.1385
20
-4.97421
11
6.13081
21
-4.97188
0
LINE
8
BLACK
6
CONTINUOUS
10
6.13081
20
-4.97188
11
6.12372
21
-4.96809
0
LINE
8
BLACK
6
CONTINUOUS
10
6.12372
20
-4.96809
11
6.11751
21
-4.96299
0
LINE
8
BLACK
6
CONTINUOUS
10
6.11751
20
-4.96299
11
6.11241
21
-4.95678
0
LINE
8
BLACK
6
CONTINUOUS
10
6.11241
20
-4.95678
11
6.10862
21
-4.94969
0
LINE
8
BLACK
6
CONTINUOUS
10
6.10862
20
-4.94969
11
6.10629
21
-4.942
0
LINE
8
BLACK
6
CONTINUOUS
10
6.10629
20
-4.942
11
6.1055
21
-4.934
0
LINE
8
BLACK
6
CONTINUOUS
10
6.1055
20
-4.934
11
6.10629
21
-4.926
0
LINE
8
BLACK
6
CONTINUOUS
10
6.10629
20
-4.926
11
6.10862
21
-4.91831
0
LINE
8
BLACK
6
CONTINUOUS
10
6.10862
20
-4.91831
11
6.11241
21
-4.91122
0
LINE
8
BLACK
6
CONTINUOUS
10
6.11241
20
-4.91122
11
6.11751
21
-4.90501
0
LINE
8
BLACK
6
CONTINUOUS
10
6.11751
20
-4.90501
11
6.12372
21
-4.89991
0
LINE
8
BLACK
6
CONTINUOUS
10
6.12372
20
-4.89991
11
6.13081
21
-4.89612
0
LINE
8
BLACK
6
CONTINUOUS
10
6.13081
20
-4.89612
11
6.1385
21
-4.89379
0
LINE
8
BLACK
6
CONTINUOUS
10
6.1385
20
-4.89379
11
6.1465
21
-4.893
0
LINE
8
BLACK
6
CONTINUOUS
10
6.1465
20
-4.893
11
6.1545
21
-4.89379
0
LINE
8
BLACK
6
CONTINUOUS
10
6.0545
20
-4.89379
11
6.06219
21
-4.89612
0
LINE
8
BLACK
6
CONTINUOUS
10
6.06219
20
-4.89612
11
6.06928
21
-4.89991
0
LINE
8
BLACK
6
CONTINUOUS
10
6.06928
20
-4.89991
11
6.07549
21
-4.90501
0
LINE
8
BLACK
6
CONTINUOUS
10
6.07549
20
-4.90501
11
6.08059
21
-4.91122
0
LINE
8
BLACK
6
CONTINUOUS
10
6.08059
20
-4.91122
11
6.08438
21
-4.91831
0
LINE
8
BLACK
6
CONTINUOUS
10
6.08438
20
-4.91831
11
6.08671
21
-4.926
0
LINE
8
BLACK
6
CONTINUOUS
10
6.08671
20
-4.926
11
6.0875
21
-4.934
0
LINE
8
BLACK
6
CONTINUOUS
10
6.0875
20
-4.934
11
6.08671
21
-4.942
0
LINE
8
BLACK
6
CONTINUOUS
10
6.08671
20
-4.942
11
6.08438
21
-4.94969
0
LINE
8
BLACK
6
CONTINUOUS
10
6.08438
20
-4.94969
11
6.08059
21
-4.95678
0
LINE
8
BLACK
6
CONTINUOUS
10
6.08059
20
-4.95678
11
6.07549
21
-4.96299
0
LINE
8
BLACK
6
CONTINUOUS
10
6.07549
20
-4.96299
11
6.06928
21
-4.96809
0
LINE
8
BLACK
6
CONTINUOUS
10
6.06928
20
-4.96809
11
6.06219
21
-4.97188
0
LINE
8
BLACK
6
CONTINUOUS
10
6.06219
20
-4.97188
11
6.0545
21
-4.97421
0
LINE
8
BLACK
6
CONTINUOUS
10
6.0545
20
-4.97421
11
6.0465
21
-4.975
0
LINE
8
BLACK
6
CONTINUOUS
10
6.0465
20
-4.975
11
6.0385
21
-4.97421
0
LINE
8
BLACK
6
CONTINUOUS
10
6.0385
20
-4.97421
11
6.03081
21
-4.97188
0
LINE
8
BLACK
6
CONTINUOUS
10
6.03081
20
-4.97188
11
6.02372
21
-4.96809
0
LINE
8
BLACK
6
CONTINUOUS
10
6.02372
20
-4.96809
11
6.01751
21
-4.96299
0
LINE
8
BLACK
6
CONTINUOUS
10
6.01751
20
-4.96299
11
6.01241
21
-4.95678
0
LINE
8
BLACK
6
CONTINUOUS
10
6.01241
20
-4.95678
11
6.00862
21
-4.94969
0
LINE
8
BLACK
6
CONTINUOUS
10
6.00862
20
-4.94969
11
6.00629
21
-4.942
0
LINE
8
BLACK
6
CONTINUOUS
10
6.00629
20
-4.942
11
6.0055
21
-4.934
0
LINE
8
BLACK
6
CONTINUOUS
10
6.0055
20
-4.934
11
6.00629
21
-4.926
0
LINE
8
BLACK
6
CONTINUOUS
10
6.00629
20
-4.926
11
6.00862
21
-4.91831
0
LINE
8
BLACK
6
CONTINUOUS
10
6.00862
20
-4.91831
11
6.01241
21
-4.91122
0
LINE
8
BLACK
6
CONTINUOUS
10
6.01241
20
-4.91122
11
6.01751
21
-4.90501
0
LINE
8
BLACK
6
CONTINUOUS
10
6.01751
20
-4.90501
11
6.02372
21
-4.89991
0
LINE
8
BLACK
6
CONTINUOUS
10
6.02372
20
-4.89991
11
6.03081
21
-4.89612
0
LINE
8
BLACK
6
CONTINUOUS
10
6.03081
20
-4.89612
11
6.0385
21
-4.89379
0
LINE
8
BLACK
6
CONTINUOUS
10
6.0385
20
-4.89379
11
6.0465
21
-4.893
0
LINE
8
BLACK
6
CONTINUOUS
10
6.0465
20
-4.893
11
6.0545
21
-4.89379
0
LINE
8
BLACK
6
CONTINUOUS
10
5.9545
20
-4.89379
11
5.96219
21
-4.89612
0
LINE
8
BLACK
6
CONTINUOUS
10
5.96219
20
-4.89612
11
5.96928
21
-4.89991
0
LINE
8
BLACK
6
CONTINUOUS
10
5.96928
20
-4.89991
11
5.97549
21
-4.90501
0
LINE
8
BLACK
6
CONTINUOUS
10
5.97549
20
-4.90501
11
5.98059
21
-4.91122
0
LINE
8
BLACK
6
CONTINUOUS
10
5.98059
20
-4.91122
11
5.98438
21
-4.91831
0
LINE
8
BLACK
6
CONTINUOUS
10
5.98438
20
-4.91831
11
5.98671
21
-4.926
0
LINE
8
BLACK
6
CONTINUOUS
10
5.98671
20
-4.926
11
5.9875
21
-4.934
0
LINE
8
BLACK
6
CONTINUOUS
10
5.9875
20
-4.934
11
5.98671
21
-4.942
0
LINE
8
BLACK
6
CONTINUOUS
10
5.98671
20
-4.942
11
5.98438
21
-4.94969
0
LINE
8
BLACK
6
CONTINUOUS
10
5.98438
20
-4.94969
11
5.98059
21
-4.95678
0
LINE
8
BLACK
6
CONTINUOUS
10
5.98059
20
-4.95678
11
5.97549
21
-4.96299
0
LINE
8
BLACK
6
CONTINUOUS
10
5.97549
20
-4.96299
11
5.96928
21
-4.96809
0
LINE
8
BLACK
6
CONTINUOUS
10
5.96928
20
-4.96809
11
5.96219
21
-4.97188
0
LINE
8
BLACK
6
CONTINUOUS
10
5.96219
20
-4.97188
11
5.9545
21
-4.97421
0
LINE
8
BLACK
6
CONTINUOUS
10
5.9545
20
-4.97421
11
5.9465
21
-4.975
0
LINE
8
BLACK
6
CONTINUOUS
10
5.9465
20
-4.975
11
5.9385
21
-4.97421
0
LINE
8
BLACK
6
CONTINUOUS
10
5.9385
20
-4.97421
11
5.93081
21
-4.97188
0
LINE
8
BLACK
6
CONTINUOUS
10
5.93081
20
-4.97188
11
5.92372
21
-4.96809
0
LINE
8
BLACK
6
CONTINUOUS
10
5.92372
20
-4.96809
11
5.91751
21
-4.96299
0
LINE
8
BLACK
6
CONTINUOUS
10
5.91751
20
-4.96299
11
5.91241
21
-4.95678
0
LINE
8
BLACK
6
CONTINUOUS
10
5.91241
20
-4.95678
11
5.90862
21
-4.94969
0
LINE
8
BLACK
6
CONTINUOUS
10
5.90862
20
-4.94969
11
5.90629
21
-4.942
0
LINE
8
BLACK
6
CONTINUOUS
10
5.90629
20
-4.942
11
5.9055
21
-4.934
0
LINE
8
BLACK
6
CONTINUOUS
10
5.9055
20
-4.934
11
5.90629
21
-4.926
0
LINE
8
BLACK
6
CONTINUOUS
10
5.90629
20
-4.926
11
5.90862
21
-4.91831
0
LINE
8
BLACK
6
CONTINUOUS
10
5.90862
20
-4.91831
11
5.91241
21
-4.91122
0
LINE
8
BLACK
6
CONTINUOUS
10
5.91241
20
-4.91122
11
5.91751
21
-4.90501
0
LINE
8
BLACK
6
CONTINUOUS
10
5.91751
20
-4.90501
11
5.92372
21
-4.89991
0
LINE
8
BLACK
6
CONTINUOUS
10
5.92372
20
-4.89991
11
5.93081
21
-4.89612
0
LINE
8
BLACK
6
CONTINUOUS
10
5.93081
20
-4.89612
11
5.9385
21
-4.89379
0
LINE
8
BLACK
6
CONTINUOUS
10
5.9385
20
-4.89379
11
5.9465
21
-4.893
0
LINE
8
BLACK
6
CONTINUOUS
10
5.9465
20
-4.893
11
5.9545
21
-4.89379
0
LINE
8
BLACK
6
CONTINUOUS
10
5.8545
20
-4.89379
11
5.86219
21
-4.89612
0
LINE
8
BLACK
6
CONTINUOUS
10
5.86219
20
-4.89612
11
5.86928
21
-4.89991
0
LINE
8
BLACK
6
CONTINUOUS
10
5.86928
20
-4.89991
11
5.87549
21
-4.90501
0
LINE
8
BLACK
6
CONTINUOUS
10
5.87549
20
-4.90501
11
5.88059
21
-4.91122
0
LINE
8
BLACK
6
CONTINUOUS
10
5.88059
20
-4.91122
11
5.88438
21
-4.91831
0
LINE
8
BLACK
6
CONTINUOUS
10
5.88438
20
-4.91831
11
5.88671
21
-4.926
0
LINE
8
BLACK
6
CONTINUOUS
10
5.88671
20
-4.926
11
5.8875
21
-4.934
0
LINE
8
BLACK
6
CONTINUOUS
10
5.8875
20
-4.934
11
5.88671
21
-4.942
0
LINE
8
BLACK
6
CONTINUOUS
10
5.88671
20
-4.942
11
5.88438
21
-4.94969
0
LINE
8
BLACK
6
CONTINUOUS
10
5.88438
20
-4.94969
11
5.88059
21
-4.95678
0
LINE
8
BLACK
6
CONTINUOUS
10
5.88059
20
-4.95678
11
5.87549
21
-4.96299
0
LINE
8
BLACK
6
CONTINUOUS
10
5.87549
20
-4.96299
11
5.86928
21
-4.96809
0
LINE
8
BLACK
6
CONTINUOUS
10
5.86928
20
-4.96809
11
5.86219
21
-4.97188
0
LINE
8
BLACK
6
CONTINUOUS
10
5.86219
20
-4.97188
11
5.8545
21
-4.97421
0
LINE
8
BLACK
6
CONTINUOUS
10
5.8545
20
-4.97421
11
5.8465
21
-4.975
0
LINE
8
BLACK
6
CONTINUOUS
10
5.8465
20
-4.975
11
5.8385
21
-4.97421
0
LINE
8
BLACK
6
CONTINUOUS
10
5.8385
20
-4.97421
11
5.83081
21
-4.97188
0
LINE
8
BLACK
6
CONTINUOUS
10
5.83081
20
-4.97188
11
5.82372
21
-4.96809
0
LINE
8
BLACK
6
CONTINUOUS
10
5.82372
20
-4.96809
11
5.81751
21
-4.96299
0
LINE
8
BLACK
6
CONTINUOUS
10
5.81751
20
-4.96299
11
5.81241
21
-4.95678
0
LINE
8
BLACK
6
CONTINUOUS
10
5.81241
20
-4.95678
11
5.80862
21
-4.94969
0
LINE
8
BLACK
6
CONTINUOUS
10
5.80862
20
-4.94969
11
5.80629
21
-4.942
0
LINE
8
BLACK
6
CONTINUOUS
10
5.80629
20
-4.942
11
5.8055
21
-4.934
0
LINE
8
BLACK
6
CONTINUOUS
10
5.8055
20
-4.934
11
5.80629
21
-4.926
0
LINE
8
BLACK
6
CONTINUOUS
10
5.80629
20
-4.926
11
5.80862
21
-4.91831
0
LINE
8
BLACK
6
CONTINUOUS
10
5.80862
20
-4.91831
11
5.81241
21
-4.91122
0
LINE
8
BLACK
6
CONTINUOUS
10
5.81241
20
-4.91122
11
5.81751
21
-4.90501
0
LINE
8
BLACK
6
CONTINUOUS
10
5.81751
20
-4.90501
11
5.82372
21
-4.89991
0
LINE
8
BLACK
6
CONTINUOUS
10
5.82372
20
-4.89991
11
5.83081
21
-4.89612
0
LINE
8
BLACK
6
CONTINUOUS
10
5.83081
20
-4.89612
11
5.8385
21
-4.89379
0
LINE
8
BLACK
6
CONTINUOUS
10
5.8385
20
-4.89379
11
5.8465
21
-4.893
0
LINE
8
BLACK
6
CONTINUOUS
10
5.8465
20
-4.893
11
5.8545
21
-4.89379
0
LINE
8
BLACK
6
CONTINUOUS
10
5.7545
20
-4.89379
11
5.76219
21
-4.89612
0
LINE
8
BLACK
6
CONTINUOUS
10
5.76219
20
-4.89612
11
5.76928
21
-4.89991
0
LINE
8
BLACK
6
CONTINUOUS
10
5.76928
20
-4.89991
11
5.77549
21
-4.90501
0
LINE
8
BLACK
6
CONTINUOUS
10
5.77549
20
-4.90501
11
5.78059
21
-4.91122
0
LINE
8
BLACK
6
CONTINUOUS
10
5.78059
20
-4.91122
11
5.78438
21
-4.91831
0
LINE
8
BLACK
6
CONTINUOUS
10
5.78438
20
-4.91831
11
5.78671
21
-4.926
0
LINE
8
BLACK
6
CONTINUOUS
10
5.78671
20
-4.926
11
5.7875
21
-4.934
0
LINE
8
BLACK
6
CONTINUOUS
10
5.7875
20
-4.934
11
5.78671
21
-4.942
0
LINE
8
BLACK
6
CONTINUOUS
10
5.78671
20
-4.942
11
5.78438
21
-4.94969
0
LINE
8
BLACK
6
CONTINUOUS
10
5.78438
20
-4.94969
11
5.78059
21
-4.95678
0
LINE
8
BLACK
6
CONTINUOUS
10
5.78059
20
-4.95678
11
5.77549
21
-4.96299
0
LINE
8
BLACK
6
CONTINUOUS
10
5.77549
20
-4.96299
11
5.76928
21
-4.96809
0
LINE
8
BLACK
6
CONTINUOUS
10
5.76928
20
-4.96809
11
5.76219
21
-4.97188
0
LINE
8
BLACK
6
CONTINUOUS
10
5.76219
20
-4.97188
11
5.7545
21
-4.97421
0
LINE
8
BLACK
6
CONTINUOUS
10
5.7545
20
-4.97421
11
5.7465
21
-4.975
0
LINE
8
BLACK
6
CONTINUOUS
10
5.7465
20
-4.975
11
5.7385
21
-4.97421
0
LINE
8
BLACK
6
CONTINUOUS
10
5.7385
20
-4.97421
11
5.73081
21
-4.97188
0
LINE
8
BLACK
6
CONTINUOUS
10
5.73081
20
-4.97188
11
5.72372
21
-4.96809
0
LINE
8
BLACK
6
CONTINUOUS
10
5.72372
20
-4.96809
11
5.71751
21
-4.96299
0
LINE
8
BLACK
6
CONTINUOUS
10
5.71751
20
-4.96299
11
5.71241
21
-4.95678
0
LINE
8
BLACK
6
CONTINUOUS
10
5.71241
20
-4.95678
11
5.70862
21
-4.94969
0
LINE
8
BLACK
6
CONTINUOUS
10
5.70862
20
-4.94969
11
5.70629
21
-4.942
0
LINE
8
BLACK
6
CONTINUOUS
10
5.70629
20
-4.942
11
5.7055
21
-4.934
0
LINE
8
BLACK
6
CONTINUOUS
10
5.7055
20
-4.934
11
5.70629
21
-4.926
0
LINE
8
BLACK
6
CONTINUOUS
10
5.70629
20
-4.926
11
5.70862
21
-4.91831
0
LINE
8
BLACK
6
CONTINUOUS
10
5.70862
20
-4.91831
11
5.71241
21
-4.91122
0
LINE
8
BLACK
6
CONTINUOUS
10
5.71241
20
-4.91122
11
5.71751
21
-4.90501
0
LINE
8
BLACK
6
CONTINUOUS
10
5.71751
20
-4.90501
11
5.72372
21
-4.89991
0
LINE
8
BLACK
6
CONTINUOUS
10
5.72372
20
-4.89991
11
5.73081
21
-4.89612
0
LINE
8
BLACK
6
CONTINUOUS
10
5.73081
20
-4.89612
11
5.7385
21
-4.89379
0
LINE
8
BLACK
6
CONTINUOUS
10
5.7385
20
-4.89379
11
5.7465
21
-4.893
0
LINE
8
BLACK
6
CONTINUOUS
10
5.7465
20
-4.893
11
5.7545
21
-4.89379
0
LINE
8
BLACK
6
CONTINUOUS
10
5.6545
20
-4.89379
11
5.66219
21
-4.89612
0
LINE
8
BLACK
6
CONTINUOUS
10
5.66219
20
-4.89612
11
5.66928
21
-4.89991
0
LINE
8
BLACK
6
CONTINUOUS
10
5.66928
20
-4.89991
11
5.67549
21
-4.90501
0
LINE
8
BLACK
6
CONTINUOUS
10
5.67549
20
-4.90501
11
5.68059
21
-4.91122
0
LINE
8
BLACK
6
CONTINUOUS
10
5.68059
20
-4.91122
11
5.68438
21
-4.91831
0
LINE
8
BLACK
6
CONTINUOUS
10
5.68438
20
-4.91831
11
5.68671
21
-4.926
0
LINE
8
BLACK
6
CONTINUOUS
10
5.68671
20
-4.926
11
5.6875
21
-4.934
0
LINE
8
BLACK
6
CONTINUOUS
10
5.6875
20
-4.934
11
5.68671
21
-4.942
0
LINE
8
BLACK
6
CONTINUOUS
10
5.68671
20
-4.942
11
5.68438
21
-4.94969
0
LINE
8
BLACK
6
CONTINUOUS
10
5.68438
20
-4.94969
11
5.68059
21
-4.95678
0
LINE
8
BLACK
6
CONTINUOUS
10
5.68059
20
-4.95678
11
5.67549
21
-4.96299
0
LINE
8
BLACK
6
CONTINUOUS
10
5.67549
20
-4.96299
11
5.66928
21
-4.96809
0
LINE
8
BLACK
6
CONTINUOUS
10
5.66928
20
-4.96809
11
5.66219
21
-4.97188
0
LINE
8
BLACK
6
CONTINUOUS
10
5.66219
20
-4.97188
11
5.6545
21
-4.97421
0
LINE
8
BLACK
6
CONTINUOUS
10
5.6545
20
-4.97421
11
5.6465
21
-4.975
0
LINE
8
BLACK
6
CONTINUOUS
10
5.6465
20
-4.975
11
5.6385
21
-4.97421
0
LINE
8
BLACK
6
CONTINUOUS
10
5.6385
20
-4.97421
11
5.63081
21
-4.97188
0
LINE
8
BLACK
6
CONTINUOUS
10
5.63081
20
-4.97188
11
5.62372
21
-4.96809
0
LINE
8
BLACK
6
CONTINUOUS
10
5.62372
20
-4.96809
11
5.61751
21
-4.96299
0
LINE
8
BLACK
6
CONTINUOUS
10
5.61751
20
-4.96299
11
5.61241
21
-4.95678
0
LINE
8
BLACK
6
CONTINUOUS
10
5.61241
20
-4.95678
11
5.60862
21
-4.94969
0
LINE
8
BLACK
6
CONTINUOUS
10
5.60862
20
-4.94969
11
5.60629
21
-4.942
0
LINE
8
BLACK
6
CONTINUOUS
10
5.60629
20
-4.942
11
5.6055
21
-4.934
0
LINE
8
BLACK
6
CONTINUOUS
10
5.6055
20
-4.934
11
5.60629
21
-4.926
0
LINE
8
BLACK
6
CONTINUOUS
10
5.60629
20
-4.926
11
5.60862
21
-4.91831
0
LINE
8
BLACK
6
CONTINUOUS
10
5.60862
20
-4.91831
11
5.61241
21
-4.91122
0
LINE
8
BLACK
6
CONTINUOUS
10
5.61241
20
-4.91122
11
5.61751
21
-4.90501
0
LINE
8
BLACK
6
CONTINUOUS
10
5.61751
20
-4.90501
11
5.62372
21
-4.89991
0
LINE
8
BLACK
6
CONTINUOUS
10
5.62372
20
-4.89991
11
5.63081
21
-4.89612
0
LINE
8
BLACK
6
CONTINUOUS
10
5.63081
20
-4.89612
11
5.6385
21
-4.89379
0
LINE
8
BLACK
6
CONTINUOUS
10
5.6385
20
-4.89379
11
5.6465
21
-4.893
0
LINE
8
BLACK
6
CONTINUOUS
10
5.6465
20
-4.893
11
5.6545
21
-4.89379
0
LINE
8
BLACK
6
CONTINUOUS
10
5.5545
20
-4.89379
11
5.56219
21
-4.89612
0
LINE
8
BLACK
6
CONTINUOUS
10
5.56219
20
-4.89612
11
5.56928
21
-4.89991
0
LINE
8
BLACK
6
CONTINUOUS
10
5.56928
20
-4.89991
11
5.57549
21
-4.90501
0
LINE
8
BLACK
6
CONTINUOUS
10
5.57549
20
-4.90501
11
5.58059
21
-4.91122
0
LINE
8
BLACK
6
CONTINUOUS
10
5.58059
20
-4.91122
11
5.58438
21
-4.91831
0
LINE
8
BLACK
6
CONTINUOUS
10
5.58438
20
-4.91831
11
5.58671
21
-4.926
0
LINE
8
BLACK
6
CONTINUOUS
10
5.58671
20
-4.926
11
5.5875
21
-4.934
0
LINE
8
BLACK
6
CONTINUOUS
10
5.5875
20
-4.934
11
5.58671
21
-4.942
0
LINE
8
BLACK
6
CONTINUOUS
10
5.58671
20
-4.942
11
5.58438
21
-4.94969
0
LINE
8
BLACK
6
CONTINUOUS
10
5.58438
20
-4.94969
11
5.58059
21
-4.95678
0
LINE
8
BLACK
6
CONTINUOUS
10
5.58059
20
-4.95678
11
5.57549
21
-4.96299
0
LINE
8
BLACK
6
CONTINUOUS
10
5.57549
20
-4.96299
11
5.56928
21
-4.96809
0
LINE
8
BLACK
6
CONTINUOUS
10
5.56928
20
-4.96809
11
5.56219
21
-4.97188
0
LINE
8
BLACK
6
CONTINUOUS
10
5.56219
20
-4.97188
11
5.5545
21
-4.97421
0
LINE
8
BLACK
6
CONTINUOUS
10
5.5545
20
-4.97421
11
5.5465
21
-4.975
0
LINE
8
BLACK
6
CONTINUOUS
10
5.5465
20
-4.975
11
5.5385
21
-4.97421
0
LINE
8
BLACK
6
CONTINUOUS
10
5.5385
20
-4.97421
11
5.53081
21
-4.97188
0
LINE
8
BLACK
6
CONTINUOUS
10
5.53081
20
-4.97188
11
5.52372
21
-4.96809
0
LINE
8
BLACK
6
CONTINUOUS
10
5.52372
20
-4.96809
11
5.51751
21
-4.96299
0
LINE
8
BLACK
6
CONTINUOUS
10
5.51751
20
-4.96299
11
5.51241
21
-4.95678
0
LINE
8
BLACK
6
CONTINUOUS
10
5.51241
20
-4.95678
11
5.50862
21
-4.94969
0
LINE
8
BLACK
6
CONTINUOUS
10
5.50862
20
-4.94969
11
5.50629
21
-4.942
0
LINE
8
BLACK
6
CONTINUOUS
10
5.50629
20
-4.942
11
5.5055
21
-4.934
0
LINE
8
BLACK
6
CONTINUOUS
10
5.5055
20
-4.934
11
5.50629
21
-4.926
0
LINE
8
BLACK
6
CONTINUOUS
10
5.50629
20
-4.926
11
5.50862
21
-4.91831
0
LINE
8
BLACK
6
CONTINUOUS
10
5.50862
20
-4.91831
11
5.51241
21
-4.91122
0
LINE
8
BLACK
6
CONTINUOUS
10
5.51241
20
-4.91122
11
5.51751
21
-4.90501
0
LINE
8
BLACK
6
CONTINUOUS
10
5.51751
20
-4.90501
11
5.52372
21
-4.89991
0
LINE
8
BLACK
6
CONTINUOUS
10
5.52372
20
-4.89991
11
5.53081
21
-4.89612
0
LINE
8
BLACK
6
CONTINUOUS
10
5.53081
20
-4.89612
11
5.5385
21
-4.89379
0
LINE
8
BLACK
6
CONTINUOUS
10
5.5385
20
-4.89379
11
5.5465
21
-4.893
0
LINE
8
BLACK
6
CONTINUOUS
10
5.5465
20
-4.893
11
5.5545
21
-4.89379
0
LINE
8
BLACK
6
CONTINUOUS
10
6.60667
20
-4.8198
11
6.61659
21
-4.82218
0
LINE
8
BLACK
6
CONTINUOUS
10
6.61659
20
-4.82218
11
6.62601
21
-4.82608
0
LINE
8
BLACK
6
CONTINUOUS
10
6.62601
20
-4.82608
11
6.63471
21
-4.83141
0
LINE
8
BLACK
6
CONTINUOUS
10
6.63471
20
-4.83141
11
6.64246
21
-4.83804
0
LINE
8
BLACK
6
CONTINUOUS
10
6.64246
20
-4.83804
11
6.64909
21
-4.84579
0
LINE
8
BLACK
6
CONTINUOUS
10
6.64909
20
-4.84579
11
6.65442
21
-4.85449
0
LINE
8
BLACK
6
CONTINUOUS
10
6.65442
20
-4.85449
11
6.65832
21
-4.86391
0
LINE
8
BLACK
6
CONTINUOUS
10
6.65832
20
-4.86391
11
6.6607
21
-4.87383
0
LINE
8
BLACK
6
CONTINUOUS
10
6.6607
20
-4.87383
11
6.6615
21
-4.884
0
LINE
8
BLACK
6
CONTINUOUS
10
6.6615
20
-4.884
11
6.6607
21
-4.89417
0
LINE
8
BLACK
6
CONTINUOUS
10
6.6607
20
-4.89417
11
6.65832
21
-4.90409
0
LINE
8
BLACK
6
CONTINUOUS
10
6.65832
20
-4.90409
11
6.65442
21
-4.91351
0
LINE
8
BLACK
6
CONTINUOUS
10
6.65442
20
-4.91351
11
6.64909
21
-4.92221
0
LINE
8
BLACK
6
CONTINUOUS
10
6.64909
20
-4.92221
11
6.64246
21
-4.92996
0
LINE
8
BLACK
6
CONTINUOUS
10
6.64246
20
-4.92996
11
6.63471
21
-4.93659
0
LINE
8
BLACK
6
CONTINUOUS
10
6.63471
20
-4.93659
11
6.62601
21
-4.94192
0
LINE
8
BLACK
6
CONTINUOUS
10
6.62601
20
-4.94192
11
6.61659
21
-4.94582
0
LINE
8
BLACK
6
CONTINUOUS
10
6.61659
20
-4.94582
11
6.60667
21
-4.9482
0
LINE
8
BLACK
6
CONTINUOUS
10
6.60667
20
-4.9482
11
6.5965
21
-4.949
0
LINE
8
BLACK
6
CONTINUOUS
10
6.5965
20
-4.949
11
6.58633
21
-4.9482
0
LINE
8
BLACK
6
CONTINUOUS
10
6.58633
20
-4.9482
11
6.57641
21
-4.94582
0
LINE
8
BLACK
6
CONTINUOUS
10
6.57641
20
-4.94582
11
6.56699
21
-4.94192
0
LINE
8
BLACK
6
CONTINUOUS
10
6.56699
20
-4.94192
11
6.55829
21
-4.93659
0
LINE
8
BLACK
6
CONTINUOUS
10
6.55829
20
-4.93659
11
6.55054
21
-4.92996
0
LINE
8
BLACK
6
CONTINUOUS
10
6.55054
20
-4.92996
11
6.54391
21
-4.92221
0
LINE
8
BLACK
6
CONTINUOUS
10
6.54391
20
-4.92221
11
6.53858
21
-4.91351
0
LINE
8
BLACK
6
CONTINUOUS
10
6.53858
20
-4.91351
11
6.53468
21
-4.90409
0
LINE
8
BLACK
6
CONTINUOUS
10
6.53468
20
-4.90409
11
6.5323
21
-4.89417
0
LINE
8
BLACK
6
CONTINUOUS
10
6.5323
20
-4.89417
11
6.5315
21
-4.884
0
LINE
8
BLACK
6
CONTINUOUS
10
6.5315
20
-4.884
11
6.5323
21
-4.87383
0
LINE
8
BLACK
6
CONTINUOUS
10
6.5323
20
-4.87383
11
6.53468
21
-4.86391
0
LINE
8
BLACK
6
CONTINUOUS
10
6.53468
20
-4.86391
11
6.53858
21
-4.85449
0
LINE
8
BLACK
6
CONTINUOUS
10
6.53858
20
-4.85449
11
6.54391
21
-4.84579
0
LINE
8
BLACK
6
CONTINUOUS
10
6.54391
20
-4.84579
11
6.55054
21
-4.83804
0
LINE
8
BLACK
6
CONTINUOUS
10
6.55054
20
-4.83804
11
6.55829
21
-4.83141
0
LINE
8
BLACK
6
CONTINUOUS
10
6.55829
20
-4.83141
11
6.56699
21
-4.82608
0
LINE
8
BLACK
6
CONTINUOUS
10
6.56699
20
-4.82608
11
6.57641
21
-4.82218
0
LINE
8
BLACK
6
CONTINUOUS
10
6.57641
20
-4.82218
11
6.58633
21
-4.8198
0
LINE
8
BLACK
6
CONTINUOUS
10
6.58633
20
-4.8198
11
6.5965
21
-4.819
0
LINE
8
BLACK
6
CONTINUOUS
10
6.5965
20
-4.819
11
6.60667
21
-4.8198
0
LINE
8
BLACK
6
CONTINUOUS
10
5.10667
20
-4.8198
11
5.11659
21
-4.82218
0
LINE
8
BLACK
6
CONTINUOUS
10
5.11659
20
-4.82218
11
5.12601
21
-4.82608
0
LINE
8
BLACK
6
CONTINUOUS
10
5.12601
20
-4.82608
11
5.13471
21
-4.83141
0
LINE
8
BLACK
6
CONTINUOUS
10
5.13471
20
-4.83141
11
5.14246
21
-4.83804
0
LINE
8
BLACK
6
CONTINUOUS
10
5.14246
20
-4.83804
11
5.14909
21
-4.84579
0
LINE
8
BLACK
6
CONTINUOUS
10
5.14909
20
-4.84579
11
5.15442
21
-4.85449
0
LINE
8
BLACK
6
CONTINUOUS
10
5.15442
20
-4.85449
11
5.15832
21
-4.86391
0
LINE
8
BLACK
6
CONTINUOUS
10
5.15832
20
-4.86391
11
5.1607
21
-4.87383
0
LINE
8
BLACK
6
CONTINUOUS
10
5.1607
20
-4.87383
11
5.1615
21
-4.884
0
LINE
8
BLACK
6
CONTINUOUS
10
5.1615
20
-4.884
11
5.1607
21
-4.89417
0
LINE
8
BLACK
6
CONTINUOUS
10
5.1607
20
-4.89417
11
5.15832
21
-4.90409
0
LINE
8
BLACK
6
CONTINUOUS
10
5.15832
20
-4.90409
11
5.15442
21
-4.91351
0
LINE
8
BLACK
6
CONTINUOUS
10
5.15442
20
-4.91351
11
5.14909
21
-4.92221
0
LINE
8
BLACK
6
CONTINUOUS
10
5.14909
20
-4.92221
11
5.14246
21
-4.92996
0
LINE
8
BLACK
6
CONTINUOUS
10
5.14246
20
-4.92996
11
5.13471
21
-4.93659
0
LINE
8
BLACK
6
CONTINUOUS
10
5.13471
20
-4.93659
11
5.12601
21
-4.94192
0
LINE
8
BLACK
6
CONTINUOUS
10
5.12601
20
-4.94192
11
5.11659
21
-4.94582
0
LINE
8
BLACK
6
CONTINUOUS
10
5.11659
20
-4.94582
11
5.10667
21
-4.9482
0
LINE
8
BLACK
6
CONTINUOUS
10
5.10667
20
-4.9482
11
5.0965
21
-4.949
0
LINE
8
BLACK
6
CONTINUOUS
10
5.0965
20
-4.949
11
5.08633
21
-4.9482
0
LINE
8
BLACK
6
CONTINUOUS
10
5.08633
20
-4.9482
11
5.07641
21
-4.94582
0
LINE
8
BLACK
6
CONTINUOUS
10
5.07641
20
-4.94582
11
5.06699
21
-4.94192
0
LINE
8
BLACK
6
CONTINUOUS
10
5.06699
20
-4.94192
11
5.05829
21
-4.93659
0
LINE
8
BLACK
6
CONTINUOUS
10
5.05829
20
-4.93659
11
5.05054
21
-4.92996
0
LINE
8
BLACK
6
CONTINUOUS
10
5.05054
20
-4.92996
11
5.04391
21
-4.92221
0
LINE
8
BLACK
6
CONTINUOUS
10
5.04391
20
-4.92221
11
5.03858
21
-4.91351
0
LINE
8
BLACK
6
CONTINUOUS
10
5.03858
20
-4.91351
11
5.03468
21
-4.90409
0
LINE
8
BLACK
6
CONTINUOUS
10
5.03468
20
-4.90409
11
5.0323
21
-4.89417
0
LINE
8
BLACK
6
CONTINUOUS
10
5.0323
20
-4.89417
11
5.0315
21
-4.884
0
LINE
8
BLACK
6
CONTINUOUS
10
5.0315
20
-4.884
11
5.0323
21
-4.87383
0
LINE
8
BLACK
6
CONTINUOUS
10
5.0323
20
-4.87383
11
5.03468
21
-4.86391
0
LINE
8
BLACK
6
CONTINUOUS
10
5.03468
20
-4.86391
11
5.03858
21
-4.85449
0
LINE
8
BLACK
6
CONTINUOUS
10
5.03858
20
-4.85449
11
5.04391
21
-4.84579
0
LINE
8
BLACK
6
CONTINUOUS
10
5.04391
20
-4.84579
11
5.05054
21
-4.83804
0
LINE
8
BLACK
6
CONTINUOUS
10
5.05054
20
-4.83804
11
5.05829
21
-4.83141
0
LINE
8
BLACK
6
CONTINUOUS
10
5.05829
20
-4.83141
11
5.06699
21
-4.82608
0
LINE
8
BLACK
6
CONTINUOUS
10
5.06699
20
-4.82608
11
5.07641
21
-4.82218
0
LINE
8
BLACK
6
CONTINUOUS
10
5.07641
20
-4.82218
11
5.08633
21
-4.8198
0
LINE
8
BLACK
6
CONTINUOUS
10
5.08633
20
-4.8198
11
5.0965
21
-4.819
0
LINE
8
BLACK
6
CONTINUOUS
10
5.0965
20
-4.819
11
5.10667
21
-4.8198
0
LINE
8
BLACK
6
CONTINUOUS
10
6.69177
20
-4.65578
11
6.69307
21
-4.65664
0
LINE
8
BLACK
6
CONTINUOUS
10
6.69307
20
-4.65664
11
6.69394
21
-4.65794
0
LINE
8
BLACK
6
CONTINUOUS
10
6.69394
20
-4.65794
11
6.69424
21
-4.65947
0
LINE
8
BLACK
6
CONTINUOUS
10
6.69424
20
-4.65947
11
6.69424
21
-4.71853
0
LINE
8
BLACK
6
CONTINUOUS
10
6.69424
20
-4.71853
11
6.69394
21
-4.72006
0
LINE
8
BLACK
6
CONTINUOUS
10
6.69394
20
-4.72006
11
6.69307
21
-4.72136
0
LINE
8
BLACK
6
CONTINUOUS
10
6.69307
20
-4.72136
11
6.69177
21
-4.72222
0
LINE
8
BLACK
6
CONTINUOUS
10
6.69177
20
-4.72222
11
6.69024
21
-4.72253
0
LINE
8
BLACK
6
CONTINUOUS
10
6.69024
20
-4.72253
11
6.53276
21
-4.72253
0
LINE
8
BLACK
6
CONTINUOUS
10
6.53276
20
-4.72253
11
6.53123
21
-4.72222
0
LINE
8
BLACK
6
CONTINUOUS
10
6.53123
20
-4.72222
11
6.52993
21
-4.72136
0
LINE
8
BLACK
6
CONTINUOUS
10
6.52993
20
-4.72136
11
6.52906
21
-4.72006
0
LINE
8
BLACK
6
CONTINUOUS
10
6.52906
20
-4.72006
11
6.52876
21
-4.71853
0
LINE
8
BLACK
6
CONTINUOUS
10
6.52876
20
-4.71853
11
6.52876
21
-4.65947
0
LINE
8
BLACK
6
CONTINUOUS
10
6.52876
20
-4.65947
11
6.52906
21
-4.65794
0
LINE
8
BLACK
6
CONTINUOUS
10
6.52906
20
-4.65794
11
6.52993
21
-4.65664
0
LINE
8
BLACK
6
CONTINUOUS
10
6.52993
20
-4.65664
11
6.53123
21
-4.65578
0
LINE
8
BLACK
6
CONTINUOUS
10
6.53123
20
-4.65578
11
6.53276
21
-4.65547
0
LINE
8
BLACK
6
CONTINUOUS
10
6.53276
20
-4.65547
11
6.69024
21
-4.65547
0
LINE
8
BLACK
6
CONTINUOUS
10
6.69024
20
-4.65547
11
6.69177
21
-4.65578
0
LINE
8
BLACK
6
CONTINUOUS
10
6.69177
20
-4.55578
11
6.69307
21
-4.55664
0
LINE
8
BLACK
6
CONTINUOUS
10
6.69307
20
-4.55664
11
6.69394
21
-4.55794
0
LINE
8
BLACK
6
CONTINUOUS
10
6.69394
20
-4.55794
11
6.69424
21
-4.55947
0
LINE
8
BLACK
6
CONTINUOUS
10
6.69424
20
-4.55947
11
6.69424
21
-4.61853
0
LINE
8
BLACK
6
CONTINUOUS
10
6.69424
20
-4.61853
11
6.69394
21
-4.62006
0
LINE
8
BLACK
6
CONTINUOUS
10
6.69394
20
-4.62006
11
6.69307
21
-4.62136
0
LINE
8
BLACK
6
CONTINUOUS
10
6.69307
20
-4.62136
11
6.69177
21
-4.62222
0
LINE
8
BLACK
6
CONTINUOUS
10
6.69177
20
-4.62222
11
6.69024
21
-4.62253
0
LINE
8
BLACK
6
CONTINUOUS
10
6.69024
20
-4.62253
11
6.53276
21
-4.62253
0
LINE
8
BLACK
6
CONTINUOUS
10
6.53276
20
-4.62253
11
6.53123
21
-4.62222
0
LINE
8
BLACK
6
CONTINUOUS
10
6.53123
20
-4.62222
11
6.52993
21
-4.62136
0
LINE
8
BLACK
6
CONTINUOUS
10
6.52993
20
-4.62136
11
6.52906
21
-4.62006
0
LINE
8
BLACK
6
CONTINUOUS
10
6.52906
20
-4.62006
11
6.52876
21
-4.61853
0
LINE
8
BLACK
6
CONTINUOUS
10
6.52876
20
-4.61853
11
6.52876
21
-4.55947
0
LINE
8
BLACK
6
CONTINUOUS
10
6.52876
20
-4.55947
11
6.52906
21
-4.55794
0
LINE
8
BLACK
6
CONTINUOUS
10
6.52906
20
-4.55794
11
6.52993
21
-4.55664
0
LINE
8
BLACK
6
CONTINUOUS
10
6.52993
20
-4.55664
11
6.53123
21
-4.55578
0
LINE
8
BLACK
6
CONTINUOUS
10
6.53123
20
-4.55578
11
6.53276
21
-4.55547
0
LINE
8
BLACK
6
CONTINUOUS
10
6.53276
20
-4.55547
11
6.69024
21
-4.55547
0
LINE
8
BLACK
6
CONTINUOUS
10
6.69024
20
-4.55547
11
6.69177
21
-4.55578
0
LINE
8
BLACK
6
CONTINUOUS
10
6.69177
20
-4.45578
11
6.69307
21
-4.45664
0
LINE
8
BLACK
6
CONTINUOUS
10
6.69307
20
-4.45664
11
6.69394
21
-4.45794
0
LINE
8
BLACK
6
CONTINUOUS
10
6.69394
20
-4.45794
11
6.69424
21
-4.45947
0
LINE
8
BLACK
6
CONTINUOUS
10
6.69424
20
-4.45947
11
6.69424
21
-4.51853
0
LINE
8
BLACK
6
CONTINUOUS
10
6.69424
20
-4.51853
11
6.69394
21
-4.52006
0
LINE
8
BLACK
6
CONTINUOUS
10
6.69394
20
-4.52006
11
6.69307
21
-4.52136
0
LINE
8
BLACK
6
CONTINUOUS
10
6.69307
20
-4.52136
11
6.69177
21
-4.52222
0
LINE
8
BLACK
6
CONTINUOUS
10
6.69177
20
-4.52222
11
6.69024
21
-4.52253
0
LINE
8
BLACK
6
CONTINUOUS
10
6.69024
20
-4.52253
11
6.53276
21
-4.52253
0
LINE
8
BLACK
6
CONTINUOUS
10
6.53276
20
-4.52253
11
6.53123
21
-4.52222
0
LINE
8
BLACK
6
CONTINUOUS
10
6.53123
20
-4.52222
11
6.52993
21
-4.52136
0
LINE
8
BLACK
6
CONTINUOUS
10
6.52993
20
-4.52136
11
6.52906
21
-4.52006
0
LINE
8
BLACK
6
CONTINUOUS
10
6.52906
20
-4.52006
11
6.52876
21
-4.51853
0
LINE
8
BLACK
6
CONTINUOUS
10
6.52876
20
-4.51853
11
6.52876
21
-4.45947
0
LINE
8
BLACK
6
CONTINUOUS
10
6.52876
20
-4.45947
11
6.52906
21
-4.45794
0
LINE
8
BLACK
6
CONTINUOUS
10
6.52906
20
-4.45794
11
6.52993
21
-4.45664
0
LINE
8
BLACK
6
CONTINUOUS
10
6.52993
20
-4.45664
11
6.53123
21
-4.45578
0
LINE
8
BLACK
6
CONTINUOUS
10
6.53123
20
-4.45578
11
6.53276
21
-4.45547
0
LINE
8
BLACK
6
CONTINUOUS
10
6.53276
20
-4.45547
11
6.69024
21
-4.45547
0
LINE
8
BLACK
6
CONTINUOUS
10
6.69024
20
-4.45547
11
6.69177
21
-4.45578
0
LINE
8
BLACK
6
CONTINUOUS
10
6.69177
20
-4.28578
11
6.69307
21
-4.28664
0
LINE
8
BLACK
6
CONTINUOUS
10
6.69307
20
-4.28664
11
6.69394
21
-4.28794
0
LINE
8
BLACK
6
CONTINUOUS
10
6.69394
20
-4.28794
11
6.69424
21
-4.28947
0
LINE
8
BLACK
6
CONTINUOUS
10
6.69424
20
-4.28947
11
6.69424
21
-4.34853
0
LINE
8
BLACK
6
CONTINUOUS
10
6.69424
20
-4.34853
11
6.69394
21
-4.35006
0
LINE
8
BLACK
6
CONTINUOUS
10
6.69394
20
-4.35006
11
6.69307
21
-4.35136
0
LINE
8
BLACK
6
CONTINUOUS
10
6.69307
20
-4.35136
11
6.69177
21
-4.35222
0
LINE
8
BLACK
6
CONTINUOUS
10
6.69177
20
-4.35222
11
6.69024
21
-4.35253
0
LINE
8
BLACK
6
CONTINUOUS
10
6.69024
20
-4.35253
11
6.53276
21
-4.35253
0
LINE
8
BLACK
6
CONTINUOUS
10
6.53276
20
-4.35253
11
6.53123
21
-4.35222
0
LINE
8
BLACK
6
CONTINUOUS
10
6.53123
20
-4.35222
11
6.52993
21
-4.35136
0
LINE
8
BLACK
6
CONTINUOUS
10
6.52993
20
-4.35136
11
6.52906
21
-4.35006
0
LINE
8
BLACK
6
CONTINUOUS
10
6.52906
20
-4.35006
11
6.52876
21
-4.34853
0
LINE
8
BLACK
6
CONTINUOUS
10
6.52876
20
-4.34853
11
6.52876
21
-4.28947
0
LINE
8
BLACK
6
CONTINUOUS
10
6.52876
20
-4.28947
11
6.52906
21
-4.28794
0
LINE
8
BLACK
6
CONTINUOUS
10
6.52906
20
-4.28794
11
6.52993
21
-4.28664
0
LINE
8
BLACK
6
CONTINUOUS
10
6.52993
20
-4.28664
11
6.53123
21
-4.28578
0
LINE
8
BLACK
6
CONTINUOUS
10
6.53123
20
-4.28578
11
6.53276
21
-4.28547
0
LINE
8
BLACK
6
CONTINUOUS
10
6.53276
20
-4.28547
11
6.69024
21
-4.28547
0
LINE
8
BLACK
6
CONTINUOUS
10
6.69024
20
-4.28547
11
6.69177
21
-4.28578
0
LINE
8
BLACK
6
CONTINUOUS
10
6.69177
20
-4.18578
11
6.69307
21
-4.18664
0
LINE
8
BLACK
6
CONTINUOUS
10
6.69307
20
-4.18664
11
6.69394
21
-4.18794
0
LINE
8
BLACK
6
CONTINUOUS
10
6.69394
20
-4.18794
11
6.69424
21
-4.18947
0
LINE
8
BLACK
6
CONTINUOUS
10
6.69424
20
-4.18947
11
6.69424
21
-4.24853
0
LINE
8
BLACK
6
CONTINUOUS
10
6.69424
20
-4.24853
11
6.69394
21
-4.25006
0
LINE
8
BLACK
6
CONTINUOUS
10
6.69394
20
-4.25006
11
6.69307
21
-4.25136
0
LINE
8
BLACK
6
CONTINUOUS
10
6.69307
20
-4.25136
11
6.69177
21
-4.25222
0
LINE
8
BLACK
6
CONTINUOUS
10
6.69177
20
-4.25222
11
6.69024
21
-4.25253
0
LINE
8
BLACK
6
CONTINUOUS
10
6.69024
20
-4.25253
11
6.53276
21
-4.25253
0
LINE
8
BLACK
6
CONTINUOUS
10
6.53276
20
-4.25253
11
6.53123
21
-4.25222
0
LINE
8
BLACK
6
CONTINUOUS
10
6.53123
20
-4.25222
11
6.52993
21
-4.25136
0
LINE
8
BLACK
6
CONTINUOUS
10
6.52993
20
-4.25136
11
6.52906
21
-4.25006
0
LINE
8
BLACK
6
CONTINUOUS
10
6.52906
20
-4.25006
11
6.52876
21
-4.24853
0
LINE
8
BLACK
6
CONTINUOUS
10
6.52876
20
-4.24853
11
6.52876
21
-4.18947
0
LINE
8
BLACK
6
CONTINUOUS
10
6.52876
20
-4.18947
11
6.52906
21
-4.18794
0
LINE
8
BLACK
6
CONTINUOUS
10
6.52906
20
-4.18794
11
6.52993
21
-4.18664
0
LINE
8
BLACK
6
CONTINUOUS
10
6.52993
20
-4.18664
11
6.53123
21
-4.18578
0
LINE
8
BLACK
6
CONTINUOUS
10
6.53123
20
-4.18578
11
6.53276
21
-4.18547
0
LINE
8
BLACK
6
CONTINUOUS
10
6.53276
20
-4.18547
11
6.69024
21
-4.18547
0
LINE
8
BLACK
6
CONTINUOUS
10
6.69024
20
-4.18547
11
6.69177
21
-4.18578
0
LINE
8
BLACK
6
CONTINUOUS
10
5.0545
20
-4.09379
11
5.06219
21
-4.09612
0
LINE
8
BLACK
6
CONTINUOUS
10
5.06219
20
-4.09612
11
5.06928
21
-4.09991
0
LINE
8
BLACK
6
CONTINUOUS
10
5.06928
20
-4.09991
11
5.07549
21
-4.10501
0
LINE
8
BLACK
6
CONTINUOUS
10
5.07549
20
-4.10501
11
5.08059
21
-4.11122
0
LINE
8
BLACK
6
CONTINUOUS
10
5.08059
20
-4.11122
11
5.08438
21
-4.11831
0
LINE
8
BLACK
6
CONTINUOUS
10
5.08438
20
-4.11831
11
5.08671
21
-4.126
0
LINE
8
BLACK
6
CONTINUOUS
10
5.08671
20
-4.126
11
5.0875
21
-4.134
0
LINE
8
BLACK
6
CONTINUOUS
10
5.0875
20
-4.134
11
5.08671
21
-4.142
0
LINE
8
BLACK
6
CONTINUOUS
10
5.08671
20
-4.142
11
5.08438
21
-4.14969
0
LINE
8
BLACK
6
CONTINUOUS
10
5.08438
20
-4.14969
11
5.08059
21
-4.15678
0
LINE
8
BLACK
6
CONTINUOUS
10
5.08059
20
-4.15678
11
5.07549
21
-4.16299
0
LINE
8
BLACK
6
CONTINUOUS
10
5.07549
20
-4.16299
11
5.06928
21
-4.16809
0
LINE
8
BLACK
6
CONTINUOUS
10
5.06928
20
-4.16809
11
5.06219
21
-4.17188
0
LINE
8
BLACK
6
CONTINUOUS
10
5.06219
20
-4.17188
11
5.0545
21
-4.17421
0
LINE
8
BLACK
6
CONTINUOUS
10
5.0545
20
-4.17421
11
5.0465
21
-4.175
0
LINE
8
BLACK
6
CONTINUOUS
10
5.0465
20
-4.175
11
5.0385
21
-4.17421
0
LINE
8
BLACK
6
CONTINUOUS
10
5.0385
20
-4.17421
11
5.03081
21
-4.17188
0
LINE
8
BLACK
6
CONTINUOUS
10
5.03081
20
-4.17188
11
5.02372
21
-4.16809
0
LINE
8
BLACK
6
CONTINUOUS
10
5.02372
20
-4.16809
11
5.01751
21
-4.16299
0
LINE
8
BLACK
6
CONTINUOUS
10
5.01751
20
-4.16299
11
5.01241
21
-4.15678
0
LINE
8
BLACK
6
CONTINUOUS
10
5.01241
20
-4.15678
11
5.00862
21
-4.14969
0
LINE
8
BLACK
6
CONTINUOUS
10
5.00862
20
-4.14969
11
5.00629
21
-4.142
0
LINE
8
BLACK
6
CONTINUOUS
10
5.00629
20
-4.142
11
5.0055
21
-4.134
0
LINE
8
BLACK
6
CONTINUOUS
10
5.0055
20
-4.134
11
5.00629
21
-4.126
0
LINE
8
BLACK
6
CONTINUOUS
10
5.00629
20
-4.126
11
5.00862
21
-4.11831
0
LINE
8
BLACK
6
CONTINUOUS
10
5.00862
20
-4.11831
11
5.01241
21
-4.11122
0
LINE
8
BLACK
6
CONTINUOUS
10
5.01241
20
-4.11122
11
5.01751
21
-4.10501
0
LINE
8
BLACK
6
CONTINUOUS
10
5.01751
20
-4.10501
11
5.02372
21
-4.09991
0
LINE
8
BLACK
6
CONTINUOUS
10
5.02372
20
-4.09991
11
5.03081
21
-4.09612
0
LINE
8
BLACK
6
CONTINUOUS
10
5.03081
20
-4.09612
11
5.0385
21
-4.09379
0
LINE
8
BLACK
6
CONTINUOUS
10
5.0385
20
-4.09379
11
5.0465
21
-4.093
0
LINE
8
BLACK
6
CONTINUOUS
10
5.0465
20
-4.093
11
5.0545
21
-4.09379
0
LINE
8
BLACK
6
CONTINUOUS
10
6.69177
20
-4.08578
11
6.69307
21
-4.08664
0
LINE
8
BLACK
6
CONTINUOUS
10
6.69307
20
-4.08664
11
6.69394
21
-4.08794
0
LINE
8
BLACK
6
CONTINUOUS
10
6.69394
20
-4.08794
11
6.69424
21
-4.08947
0
LINE
8
BLACK
6
CONTINUOUS
10
6.69424
20
-4.08947
11
6.69424
21
-4.14853
0
LINE
8
BLACK
6
CONTINUOUS
10
6.69424
20
-4.14853
11
6.69394
21
-4.15006
0
LINE
8
BLACK
6
CONTINUOUS
10
6.69394
20
-4.15006
11
6.69307
21
-4.15136
0
LINE
8
BLACK
6
CONTINUOUS
10
6.69307
20
-4.15136
11
6.69177
21
-4.15222
0
LINE
8
BLACK
6
CONTINUOUS
10
6.69177
20
-4.15222
11
6.69024
21
-4.15253
0
LINE
8
BLACK
6
CONTINUOUS
10
6.69024
20
-4.15253
11
6.53276
21
-4.15253
0
LINE
8
BLACK
6
CONTINUOUS
10
6.53276
20
-4.15253
11
6.53123
21
-4.15222
0
LINE
8
BLACK
6
CONTINUOUS
10
6.53123
20
-4.15222
11
6.52993
21
-4.15136
0
LINE
8
BLACK
6
CONTINUOUS
10
6.52993
20
-4.15136
11
6.52906
21
-4.15006
0
LINE
8
BLACK
6
CONTINUOUS
10
6.52906
20
-4.15006
11
6.52876
21
-4.14853
0
LINE
8
BLACK
6
CONTINUOUS
10
6.52876
20
-4.14853
11
6.52876
21
-4.08947
0
LINE
8
BLACK
6
CONTINUOUS
10
6.52876
20
-4.08947
11
6.52906
21
-4.08794
0
LINE
8
BLACK
6
CONTINUOUS
10
6.52906
20
-4.08794
11
6.52993
21
-4.08664
0
LINE
8
BLACK
6
CONTINUOUS
10
6.52993
20
-4.08664
11
6.53123
21
-4.08578
0
LINE
8
BLACK
6
CONTINUOUS
10
6.53123
20
-4.08578
11
6.53276
21
-4.08547
0
LINE
8
BLACK
6
CONTINUOUS
10
6.53276
20
-4.08547
11
6.69024
21
-4.08547
0
LINE
8
BLACK
6
CONTINUOUS
10
6.69024
20
-4.08547
11
6.69177
21
-4.08578
0
LINE
8
BLACK
6
CONTINUOUS
10
5.0545
20
-3.99379
11
5.06219
21
-3.99612
0
LINE
8
BLACK
6
CONTINUOUS
10
5.06219
20
-3.99612
11
5.06928
21
-3.99991
0
LINE
8
BLACK
6
CONTINUOUS
10
5.06928
20
-3.99991
11
5.07549
21
-4.00501
0
LINE
8
BLACK
6
CONTINUOUS
10
5.07549
20
-4.00501
11
5.08059
21
-4.01122
0
LINE
8
BLACK
6
CONTINUOUS
10
5.08059
20
-4.01122
11
5.08438
21
-4.01831
0
LINE
8
BLACK
6
CONTINUOUS
10
5.08438
20
-4.01831
11
5.08671
21
-4.026
0
LINE
8
BLACK
6
CONTINUOUS
10
5.08671
20
-4.026
11
5.0875
21
-4.034
0
LINE
8
BLACK
6
CONTINUOUS
10
5.0875
20
-4.034
11
5.08671
21
-4.042
0
LINE
8
BLACK
6
CONTINUOUS
10
5.08671
20
-4.042
11
5.08438
21
-4.04969
0
LINE
8
BLACK
6
CONTINUOUS
10
5.08438
20
-4.04969
11
5.08059
21
-4.05678
0
LINE
8
BLACK
6
CONTINUOUS
10
5.08059
20
-4.05678
11
5.07549
21
-4.06299
0
LINE
8
BLACK
6
CONTINUOUS
10
5.07549
20
-4.06299
11
5.06928
21
-4.06809
0
LINE
8
BLACK
6
CONTINUOUS
10
5.06928
20
-4.06809
11
5.06219
21
-4.07188
0
LINE
8
BLACK
6
CONTINUOUS
10
5.06219
20
-4.07188
11
5.0545
21
-4.07421
0
LINE
8
BLACK
6
CONTINUOUS
10
5.0545
20
-4.07421
11
5.0465
21
-4.075
0
LINE
8
BLACK
6
CONTINUOUS
10
5.0465
20
-4.075
11
5.0385
21
-4.07421
0
LINE
8
BLACK
6
CONTINUOUS
10
5.0385
20
-4.07421
11
5.03081
21
-4.07188
0
LINE
8
BLACK
6
CONTINUOUS
10
5.03081
20
-4.07188
11
5.02372
21
-4.06809
0
LINE
8
BLACK
6
CONTINUOUS
10
5.02372
20
-4.06809
11
5.01751
21
-4.06299
0
LINE
8
BLACK
6
CONTINUOUS
10
5.01751
20
-4.06299
11
5.01241
21
-4.05678
0
LINE
8
BLACK
6
CONTINUOUS
10
5.01241
20
-4.05678
11
5.00862
21
-4.04969
0
LINE
8
BLACK
6
CONTINUOUS
10
5.00862
20
-4.04969
11
5.00629
21
-4.042
0
LINE
8
BLACK
6
CONTINUOUS
10
5.00629
20
-4.042
11
5.0055
21
-4.034
0
LINE
8
BLACK
6
CONTINUOUS
10
5.0055
20
-4.034
11
5.00629
21
-4.026
0
LINE
8
BLACK
6
CONTINUOUS
10
5.00629
20
-4.026
11
5.00862
21
-4.01831
0
LINE
8
BLACK
6
CONTINUOUS
10
5.00862
20
-4.01831
11
5.01241
21
-4.01122
0
LINE
8
BLACK
6
CONTINUOUS
10
5.01241
20
-4.01122
11
5.01751
21
-4.00501
0
LINE
8
BLACK
6
CONTINUOUS
10
5.01751
20
-4.00501
11
5.02372
21
-3.99991
0
LINE
8
BLACK
6
CONTINUOUS
10
5.02372
20
-3.99991
11
5.03081
21
-3.99612
0
LINE
8
BLACK
6
CONTINUOUS
10
5.03081
20
-3.99612
11
5.0385
21
-3.99379
0
LINE
8
BLACK
6
CONTINUOUS
10
5.0385
20
-3.99379
11
5.0465
21
-3.993
0
LINE
8
BLACK
6
CONTINUOUS
10
5.0465
20
-3.993
11
5.0545
21
-3.99379
0
LINE
8
BLACK
6
CONTINUOUS
10
5.0545
20
-3.89379
11
5.06219
21
-3.89612
0
LINE
8
BLACK
6
CONTINUOUS
10
5.06219
20
-3.89612
11
5.06928
21
-3.89991
0
LINE
8
BLACK
6
CONTINUOUS
10
5.06928
20
-3.89991
11
5.07549
21
-3.90501
0
LINE
8
BLACK
6
CONTINUOUS
10
5.07549
20
-3.90501
11
5.08059
21
-3.91122
0
LINE
8
BLACK
6
CONTINUOUS
10
5.08059
20
-3.91122
11
5.08438
21
-3.91831
0
LINE
8
BLACK
6
CONTINUOUS
10
5.08438
20
-3.91831
11
5.08671
21
-3.926
0
LINE
8
BLACK
6
CONTINUOUS
10
5.08671
20
-3.926
11
5.0875
21
-3.934
0
LINE
8
BLACK
6
CONTINUOUS
10
5.0875
20
-3.934
11
5.08671
21
-3.942
0
LINE
8
BLACK
6
CONTINUOUS
10
5.08671
20
-3.942
11
5.08438
21
-3.94969
0
LINE
8
BLACK
6
CONTINUOUS
10
5.08438
20
-3.94969
11
5.08059
21
-3.95678
0
LINE
8
BLACK
6
CONTINUOUS
10
5.08059
20
-3.95678
11
5.07549
21
-3.96299
0
LINE
8
BLACK
6
CONTINUOUS
10
5.07549
20
-3.96299
11
5.06928
21
-3.96809
0
LINE
8
BLACK
6
CONTINUOUS
10
5.06928
20
-3.96809
11
5.06219
21
-3.97188
0
LINE
8
BLACK
6
CONTINUOUS
10
5.06219
20
-3.97188
11
5.0545
21
-3.97421
0
LINE
8
BLACK
6
CONTINUOUS
10
5.0545
20
-3.97421
11
5.0465
21
-3.975
0
LINE
8
BLACK
6
CONTINUOUS
10
5.0465
20
-3.975
11
5.0385
21
-3.97421
0
LINE
8
BLACK
6
CONTINUOUS
10
5.0385
20
-3.97421
11
5.03081
21
-3.97188
0
LINE
8
BLACK
6
CONTINUOUS
10
5.03081
20
-3.97188
11
5.02372
21
-3.96809
0
LINE
8
BLACK
6
CONTINUOUS
10
5.02372
20
-3.96809
11
5.01751
21
-3.96299
0
LINE
8
BLACK
6
CONTINUOUS
10
5.01751
20
-3.96299
11
5.01241
21
-3.95678
0
LINE
8
BLACK
6
CONTINUOUS
10
5.01241
20
-3.95678
11
5.00862
21
-3.94969
0
LINE
8
BLACK
6
CONTINUOUS
10
5.00862
20
-3.94969
11
5.00629
21
-3.942
0
LINE
8
BLACK
6
CONTINUOUS
10
5.00629
20
-3.942
11
5.0055
21
-3.934
0
LINE
8
BLACK
6
CONTINUOUS
10
5.0055
20
-3.934
11
5.00629
21
-3.926
0
LINE
8
BLACK
6
CONTINUOUS
10
5.00629
20
-3.926
11
5.00862
21
-3.91831
0
LINE
8
BLACK
6
CONTINUOUS
10
5.00862
20
-3.91831
11
5.01241
21
-3.91122
0
LINE
8
BLACK
6
CONTINUOUS
10
5.01241
20
-3.91122
11
5.01751
21
-3.90501
0
LINE
8
BLACK
6
CONTINUOUS
10
5.01751
20
-3.90501
11
5.02372
21
-3.89991
0
LINE
8
BLACK
6
CONTINUOUS
10
5.02372
20
-3.89991
11
5.03081
21
-3.89612
0
LINE
8
BLACK
6
CONTINUOUS
10
5.03081
20
-3.89612
11
5.0385
21
-3.89379
0
LINE
8
BLACK
6
CONTINUOUS
10
5.0385
20
-3.89379
11
5.0465
21
-3.893
0
LINE
8
BLACK
6
CONTINUOUS
10
5.0465
20
-3.893
11
5.0545
21
-3.89379
0
LINE
8
BLACK
6
CONTINUOUS
10
5.0545
20
-3.79379
11
5.06219
21
-3.79612
0
LINE
8
BLACK
6
CONTINUOUS
10
5.06219
20
-3.79612
11
5.06928
21
-3.79991
0
LINE
8
BLACK
6
CONTINUOUS
10
5.06928
20
-3.79991
11
5.07549
21
-3.80501
0
LINE
8
BLACK
6
CONTINUOUS
10
5.07549
20
-3.80501
11
5.08059
21
-3.81122
0
LINE
8
BLACK
6
CONTINUOUS
10
5.08059
20
-3.81122
11
5.08438
21
-3.81831
0
LINE
8
BLACK
6
CONTINUOUS
10
5.08438
20
-3.81831
11
5.08671
21
-3.826
0
LINE
8
BLACK
6
CONTINUOUS
10
5.08671
20
-3.826
11
5.0875
21
-3.834
0
LINE
8
BLACK
6
CONTINUOUS
10
5.0875
20
-3.834
11
5.08671
21
-3.842
0
LINE
8
BLACK
6
CONTINUOUS
10
5.08671
20
-3.842
11
5.08438
21
-3.84969
0
LINE
8
BLACK
6
CONTINUOUS
10
5.08438
20
-3.84969
11
5.08059
21
-3.85678
0
LINE
8
BLACK
6
CONTINUOUS
10
5.08059
20
-3.85678
11
5.07549
21
-3.86299
0
LINE
8
BLACK
6
CONTINUOUS
10
5.07549
20
-3.86299
11
5.06928
21
-3.86809
0
LINE
8
BLACK
6
CONTINUOUS
10
5.06928
20
-3.86809
11
5.06219
21
-3.87188
0
LINE
8
BLACK
6
CONTINUOUS
10
5.06219
20
-3.87188
11
5.0545
21
-3.87421
0
LINE
8
BLACK
6
CONTINUOUS
10
5.0545
20
-3.87421
11
5.0465
21
-3.875
0
LINE
8
BLACK
6
CONTINUOUS
10
5.0465
20
-3.875
11
5.0385
21
-3.87421
0
LINE
8
BLACK
6
CONTINUOUS
10
5.0385
20
-3.87421
11
5.03081
21
-3.87188
0
LINE
8
BLACK
6
CONTINUOUS
10
5.03081
20
-3.87188
11
5.02372
21
-3.86809
0
LINE
8
BLACK
6
CONTINUOUS
10
5.02372
20
-3.86809
11
5.01751
21
-3.86299
0
LINE
8
BLACK
6
CONTINUOUS
10
5.01751
20
-3.86299
11
5.01241
21
-3.85678
0
LINE
8
BLACK
6
CONTINUOUS
10
5.01241
20
-3.85678
11
5.00862
21
-3.84969
0
LINE
8
BLACK
6
CONTINUOUS
10
5.00862
20
-3.84969
11
5.00629
21
-3.842
0
LINE
8
BLACK
6
CONTINUOUS
10
5.00629
20
-3.842
11
5.0055
21
-3.834
0
LINE
8
BLACK
6
CONTINUOUS
10
5.0055
20
-3.834
11
5.00629
21
-3.826
0
LINE
8
BLACK
6
CONTINUOUS
10
5.00629
20
-3.826
11
5.00862
21
-3.81831
0
LINE
8
BLACK
6
CONTINUOUS
10
5.00862
20
-3.81831
11
5.01241
21
-3.81122
0
LINE
8
BLACK
6
CONTINUOUS
10
5.01241
20
-3.81122
11
5.01751
21
-3.80501
0
LINE
8
BLACK
6
CONTINUOUS
10
5.01751
20
-3.80501
11
5.02372
21
-3.79991
0
LINE
8
BLACK
6
CONTINUOUS
10
5.02372
20
-3.79991
11
5.03081
21
-3.79612
0
LINE
8
BLACK
6
CONTINUOUS
10
5.03081
20
-3.79612
11
5.0385
21
-3.79379
0
LINE
8
BLACK
6
CONTINUOUS
10
5.0385
20
-3.79379
11
5.0465
21
-3.793
0
LINE
8
BLACK
6
CONTINUOUS
10
5.0465
20
-3.793
11
5.0545
21
-3.79379
0
LINE
8
BLACK
6
CONTINUOUS
10
5.0545
20
-3.69379
11
5.06219
21
-3.69612
0
LINE
8
BLACK
6
CONTINUOUS
10
5.06219
20
-3.69612
11
5.06928
21
-3.69991
0
LINE
8
BLACK
6
CONTINUOUS
10
5.06928
20
-3.69991
11
5.07549
21
-3.70501
0
LINE
8
BLACK
6
CONTINUOUS
10
5.07549
20
-3.70501
11
5.08059
21
-3.71122
0
LINE
8
BLACK
6
CONTINUOUS
10
5.08059
20
-3.71122
11
5.08438
21
-3.71831
0
LINE
8
BLACK
6
CONTINUOUS
10
5.08438
20
-3.71831
11
5.08671
21
-3.726
0
LINE
8
BLACK
6
CONTINUOUS
10
5.08671
20
-3.726
11
5.0875
21
-3.734
0
LINE
8
BLACK
6
CONTINUOUS
10
5.0875
20
-3.734
11
5.08671
21
-3.742
0
LINE
8
BLACK
6
CONTINUOUS
10
5.08671
20
-3.742
11
5.08438
21
-3.74969
0
LINE
8
BLACK
6
CONTINUOUS
10
5.08438
20
-3.74969
11
5.08059
21
-3.75678
0
LINE
8
BLACK
6
CONTINUOUS
10
5.08059
20
-3.75678
11
5.07549
21
-3.76299
0
LINE
8
BLACK
6
CONTINUOUS
10
5.07549
20
-3.76299
11
5.06928
21
-3.76809
0
LINE
8
BLACK
6
CONTINUOUS
10
5.06928
20
-3.76809
11
5.06219
21
-3.77188
0
LINE
8
BLACK
6
CONTINUOUS
10
5.06219
20
-3.77188
11
5.0545
21
-3.77421
0
LINE
8
BLACK
6
CONTINUOUS
10
5.0545
20
-3.77421
11
5.0465
21
-3.775
0
LINE
8
BLACK
6
CONTINUOUS
10
5.0465
20
-3.775
11
5.0385
21
-3.77421
0
LINE
8
BLACK
6
CONTINUOUS
10
5.0385
20
-3.77421
11
5.03081
21
-3.77188
0
LINE
8
BLACK
6
CONTINUOUS
10
5.03081
20
-3.77188
11
5.02372
21
-3.76809
0
LINE
8
BLACK
6
CONTINUOUS
10
5.02372
20
-3.76809
11
5.01751
21
-3.76299
0
LINE
8
BLACK
6
CONTINUOUS
10
5.01751
20
-3.76299
11
5.01241
21
-3.75678
0
LINE
8
BLACK
6
CONTINUOUS
10
5.01241
20
-3.75678
11
5.00862
21
-3.74969
0
LINE
8
BLACK
6
CONTINUOUS
10
5.00862
20
-3.74969
11
5.00629
21
-3.742
0
LINE
8
BLACK
6
CONTINUOUS
10
5.00629
20
-3.742
11
5.0055
21
-3.734
0
LINE
8
BLACK
6
CONTINUOUS
10
5.0055
20
-3.734
11
5.00629
21
-3.726
0
LINE
8
BLACK
6
CONTINUOUS
10
5.00629
20
-3.726
11
5.00862
21
-3.71831
0
LINE
8
BLACK
6
CONTINUOUS
10
5.00862
20
-3.71831
11
5.01241
21
-3.71122
0
LINE
8
BLACK
6
CONTINUOUS
10
5.01241
20
-3.71122
11
5.01751
21
-3.70501
0
LINE
8
BLACK
6
CONTINUOUS
10
5.01751
20
-3.70501
11
5.02372
21
-3.69991
0
LINE
8
BLACK
6
CONTINUOUS
10
5.02372
20
-3.69991
11
5.03081
21
-3.69612
0
LINE
8
BLACK
6
CONTINUOUS
10
5.03081
20
-3.69612
11
5.0385
21
-3.69379
0
LINE
8
BLACK
6
CONTINUOUS
10
5.0385
20
-3.69379
11
5.0465
21
-3.693
0
LINE
8
BLACK
6
CONTINUOUS
10
5.0465
20
-3.693
11
5.0545
21
-3.69379
0
LINE
8
BLACK
6
CONTINUOUS
10
5.0545
20
-3.59379
11
5.06219
21
-3.59612
0
LINE
8
BLACK
6
CONTINUOUS
10
5.06219
20
-3.59612
11
5.06928
21
-3.59991
0
LINE
8
BLACK
6
CONTINUOUS
10
5.06928
20
-3.59991
11
5.07549
21
-3.60501
0
LINE
8
BLACK
6
CONTINUOUS
10
5.07549
20
-3.60501
11
5.08059
21
-3.61122
0
LINE
8
BLACK
6
CONTINUOUS
10
5.08059
20
-3.61122
11
5.08438
21
-3.61831
0
LINE
8
BLACK
6
CONTINUOUS
10
5.08438
20
-3.61831
11
5.08671
21
-3.626
0
LINE
8
BLACK
6
CONTINUOUS
10
5.08671
20
-3.626
11
5.0875
21
-3.634
0
LINE
8
BLACK
6
CONTINUOUS
10
5.0875
20
-3.634
11
5.08671
21
-3.642
0
LINE
8
BLACK
6
CONTINUOUS
10
5.08671
20
-3.642
11
5.08438
21
-3.64969
0
LINE
8
BLACK
6
CONTINUOUS
10
5.08438
20
-3.64969
11
5.08059
21
-3.65678
0
LINE
8
BLACK
6
CONTINUOUS
10
5.08059
20
-3.65678
11
5.07549
21
-3.66299
0
LINE
8
BLACK
6
CONTINUOUS
10
5.07549
20
-3.66299
11
5.06928
21
-3.66809
0
LINE
8
BLACK
6
CONTINUOUS
10
5.06928
20
-3.66809
11
5.06219
21
-3.67188
0
LINE
8
BLACK
6
CONTINUOUS
10
5.06219
20
-3.67188
11
5.0545
21
-3.67421
0
LINE
8
BLACK
6
CONTINUOUS
10
5.0545
20
-3.67421
11
5.0465
21
-3.675
0
LINE
8
BLACK
6
CONTINUOUS
10
5.0465
20
-3.675
11
5.0385
21
-3.67421
0
LINE
8
BLACK
6
CONTINUOUS
10
5.0385
20
-3.67421
11
5.03081
21
-3.67188
0
LINE
8
BLACK
6
CONTINUOUS
10
5.03081
20
-3.67188
11
5.02372
21
-3.66809
0
LINE
8
BLACK
6
CONTINUOUS
10
5.02372
20
-3.66809
11
5.01751
21
-3.66299
0
LINE
8
BLACK
6
CONTINUOUS
10
5.01751
20
-3.66299
11
5.01241
21
-3.65678
0
LINE
8
BLACK
6
CONTINUOUS
10
5.01241
20
-3.65678
11
5.00862
21
-3.64969
0
LINE
8
BLACK
6
CONTINUOUS
10
5.00862
20
-3.64969
11
5.00629
21
-3.642
0
LINE
8
BLACK
6
CONTINUOUS
10
5.00629
20
-3.642
11
5.0055
21
-3.634
0
LINE
8
BLACK
6
CONTINUOUS
10
5.0055
20
-3.634
11
5.00629
21
-3.626
0
LINE
8
BLACK
6
CONTINUOUS
10
5.00629
20
-3.626
11
5.00862
21
-3.61831
0
LINE
8
BLACK
6
CONTINUOUS
10
5.00862
20
-3.61831
11
5.01241
21
-3.61122
0
LINE
8
BLACK
6
CONTINUOUS
10
5.01241
20
-3.61122
11
5.01751
21
-3.60501
0
LINE
8
BLACK
6
CONTINUOUS
10
5.01751
20
-3.60501
11
5.02372
21
-3.59991
0
LINE
8
BLACK
6
CONTINUOUS
10
5.02372
20
-3.59991
11
5.03081
21
-3.59612
0
LINE
8
BLACK
6
CONTINUOUS
10
5.03081
20
-3.59612
11
5.0385
21
-3.59379
0
LINE
8
BLACK
6
CONTINUOUS
10
5.0385
20
-3.59379
11
5.0465
21
-3.593
0
LINE
8
BLACK
6
CONTINUOUS
10
5.0465
20
-3.593
11
5.0545
21
-3.59379
0
LINE
8
BLACK
6
CONTINUOUS
10
6.60667
20
-3.3198
11
6.61659
21
-3.32218
0
LINE
8
BLACK
6
CONTINUOUS
10
6.61659
20
-3.32218
11
6.62601
21
-3.32608
0
LINE
8
BLACK
6
CONTINUOUS
10
6.62601
20
-3.32608
11
6.63471
21
-3.33141
0
LINE
8
BLACK
6
CONTINUOUS
10
6.63471
20
-3.33141
11
6.64246
21
-3.33804
0
LINE
8
BLACK
6
CONTINUOUS
10
6.64246
20
-3.33804
11
6.64909
21
-3.34579
0
LINE
8
BLACK
6
CONTINUOUS
10
6.64909
20
-3.34579
11
6.65442
21
-3.35449
0
LINE
8
BLACK
6
CONTINUOUS
10
6.65442
20
-3.35449
11
6.65832
21
-3.36391
0
LINE
8
BLACK
6
CONTINUOUS
10
6.65832
20
-3.36391
11
6.6607
21
-3.37383
0
LINE
8
BLACK
6
CONTINUOUS
10
6.6607
20
-3.37383
11
6.6615
21
-3.384
0
LINE
8
BLACK
6
CONTINUOUS
10
6.6615
20
-3.384
11
6.6607
21
-3.39417
0
LINE
8
BLACK
6
CONTINUOUS
10
6.6607
20
-3.39417
11
6.65832
21
-3.40409
0
LINE
8
BLACK
6
CONTINUOUS
10
6.65832
20
-3.40409
11
6.65442
21
-3.41351
0
LINE
8
BLACK
6
CONTINUOUS
10
6.65442
20
-3.41351
11
6.64909
21
-3.42221
0
LINE
8
BLACK
6
CONTINUOUS
10
6.64909
20
-3.42221
11
6.64246
21
-3.42996
0
LINE
8
BLACK
6
CONTINUOUS
10
6.64246
20
-3.42996
11
6.63471
21
-3.43659
0
LINE
8
BLACK
6
CONTINUOUS
10
6.63471
20
-3.43659
11
6.62601
21
-3.44192
0
LINE
8
BLACK
6
CONTINUOUS
10
6.62601
20
-3.44192
11
6.61659
21
-3.44582
0
LINE
8
BLACK
6
CONTINUOUS
10
6.61659
20
-3.44582
11
6.60667
21
-3.4482
0
LINE
8
BLACK
6
CONTINUOUS
10
6.60667
20
-3.4482
11
6.5965
21
-3.449
0
LINE
8
BLACK
6
CONTINUOUS
10
6.5965
20
-3.449
11
6.58633
21
-3.4482
0
LINE
8
BLACK
6
CONTINUOUS
10
6.58633
20
-3.4482
11
6.57641
21
-3.44582
0
LINE
8
BLACK
6
CONTINUOUS
10
6.57641
20
-3.44582
11
6.56699
21
-3.44192
0
LINE
8
BLACK
6
CONTINUOUS
10
6.56699
20
-3.44192
11
6.55829
21
-3.43659
0
LINE
8
BLACK
6
CONTINUOUS
10
6.55829
20
-3.43659
11
6.55054
21
-3.42996
0
LINE
8
BLACK
6
CONTINUOUS
10
6.55054
20
-3.42996
11
6.54391
21
-3.42221
0
LINE
8
BLACK
6
CONTINUOUS
10
6.54391
20
-3.42221
11
6.53858
21
-3.41351
0
LINE
8
BLACK
6
CONTINUOUS
10
6.53858
20
-3.41351
11
6.53468
21
-3.40409
0
LINE
8
BLACK
6
CONTINUOUS
10
6.53468
20
-3.40409
11
6.5323
21
-3.39417
0
LINE
8
BLACK
6
CONTINUOUS
10
6.5323
20
-3.39417
11
6.5315
21
-3.384
0
LINE
8
BLACK
6
CONTINUOUS
10
6.5315
20
-3.384
11
6.5323
21
-3.37383
0
LINE
8
BLACK
6
CONTINUOUS
10
6.5323
20
-3.37383
11
6.53468
21
-3.36391
0
LINE
8
BLACK
6
CONTINUOUS
10
6.53468
20
-3.36391
11
6.53858
21
-3.35449
0
LINE
8
BLACK
6
CONTINUOUS
10
6.53858
20
-3.35449
11
6.54391
21
-3.34579
0
LINE
8
BLACK
6
CONTINUOUS
10
6.54391
20
-3.34579
11
6.55054
21
-3.33804
0
LINE
8
BLACK
6
CONTINUOUS
10
6.55054
20
-3.33804
11
6.55829
21
-3.33141
0
LINE
8
BLACK
6
CONTINUOUS
10
6.55829
20
-3.33141
11
6.56699
21
-3.32608
0
LINE
8
BLACK
6
CONTINUOUS
10
6.56699
20
-3.32608
11
6.57641
21
-3.32218
0
LINE
8
BLACK
6
CONTINUOUS
10
6.57641
20
-3.32218
11
6.58633
21
-3.3198
0
LINE
8
BLACK
6
CONTINUOUS
10
6.58633
20
-3.3198
11
6.5965
21
-3.319
0
LINE
8
BLACK
6
CONTINUOUS
10
6.5965
20
-3.319
11
6.60667
21
-3.3198
0
LINE
8
BLACK
6
CONTINUOUS
10
5.10667
20
-3.3198
11
5.11659
21
-3.32218
0
LINE
8
BLACK
6
CONTINUOUS
10
5.11659
20
-3.32218
11
5.12601
21
-3.32608
0
LINE
8
BLACK
6
CONTINUOUS
10
5.12601
20
-3.32608
11
5.13471
21
-3.33141
0
LINE
8
BLACK
6
CONTINUOUS
10
5.13471
20
-3.33141
11
5.14246
21
-3.33804
0
LINE
8
BLACK
6
CONTINUOUS
10
5.14246
20
-3.33804
11
5.14909
21
-3.34579
0
LINE
8
BLACK
6
CONTINUOUS
10
5.14909
20
-3.34579
11
5.15442
21
-3.35449
0
LINE
8
BLACK
6
CONTINUOUS
10
5.15442
20
-3.35449
11
5.15832
21
-3.36391
0
LINE
8
BLACK
6
CONTINUOUS
10
5.15832
20
-3.36391
11
5.1607
21
-3.37383
0
LINE
8
BLACK
6
CONTINUOUS
10
5.1607
20
-3.37383
11
5.1615
21
-3.384
0
LINE
8
BLACK
6
CONTINUOUS
10
5.1615
20
-3.384
11
5.1607
21
-3.39417
0
LINE
8
BLACK
6
CONTINUOUS
10
5.1607
20
-3.39417
11
5.15832
21
-3.40409
0
LINE
8
BLACK
6
CONTINUOUS
10
5.15832
20
-3.40409
11
5.15442
21
-3.41351
0
LINE
8
BLACK
6
CONTINUOUS
10
5.15442
20
-3.41351
11
5.14909
21
-3.42221
0
LINE
8
BLACK
6
CONTINUOUS
10
5.14909
20
-3.42221
11
5.14246
21
-3.42996
0
LINE
8
BLACK
6
CONTINUOUS
10
5.14246
20
-3.42996
11
5.13471
21
-3.43659
0
LINE
8
BLACK
6
CONTINUOUS
10
5.13471
20
-3.43659
11
5.12601
21
-3.44192
0
LINE
8
BLACK
6
CONTINUOUS
10
5.12601
20
-3.44192
11
5.11659
21
-3.44582
0
LINE
8
BLACK
6
CONTINUOUS
10
5.11659
20
-3.44582
11
5.10667
21
-3.4482
0
LINE
8
BLACK
6
CONTINUOUS
10
5.10667
20
-3.4482
11
5.0965
21
-3.449
0
LINE
8
BLACK
6
CONTINUOUS
10
5.0965
20
-3.449
11
5.08633
21
-3.4482
0
LINE
8
BLACK
6
CONTINUOUS
10
5.08633
20
-3.4482
11
5.07641
21
-3.44582
0
LINE
8
BLACK
6
CONTINUOUS
10
5.07641
20
-3.44582
11
5.06699
21
-3.44192
0
LINE
8
BLACK
6
CONTINUOUS
10
5.06699
20
-3.44192
11
5.05829
21
-3.43659
0
LINE
8
BLACK
6
CONTINUOUS
10
5.05829
20
-3.43659
11
5.05054
21
-3.42996
0
LINE
8
BLACK
6
CONTINUOUS
10
5.05054
20
-3.42996
11
5.04391
21
-3.42221
0
LINE
8
BLACK
6
CONTINUOUS
10
5.04391
20
-3.42221
11
5.03858
21
-3.41351
0
LINE
8
BLACK
6
CONTINUOUS
10
5.03858
20
-3.41351
11
5.03468
21
-3.40409
0
LINE
8
BLACK
6
CONTINUOUS
10
5.03468
20
-3.40409
11
5.0323
21
-3.39417
0
LINE
8
BLACK
6
CONTINUOUS
10
5.0323
20
-3.39417
11
5.0315
21
-3.384
0
LINE
8
BLACK
6
CONTINUOUS
10
5.0315
20
-3.384
11
5.0323
21
-3.37383
0
LINE
8
BLACK
6
CONTINUOUS
10
5.0323
20
-3.37383
11
5.03468
21
-3.36391
0
LINE
8
BLACK
6
CONTINUOUS
10
5.03468
20
-3.36391
11
5.03858
21
-3.35449
0
LINE
8
BLACK
6
CONTINUOUS
10
5.03858
20
-3.35449
11
5.04391
21
-3.34579
0
LINE
8
BLACK
6
CONTINUOUS
10
5.04391
20
-3.34579
11
5.05054
21
-3.33804
0
LINE
8
BLACK
6
CONTINUOUS
10
5.05054
20
-3.33804
11
5.05829
21
-3.33141
0
LINE
8
BLACK
6
CONTINUOUS
10
5.05829
20
-3.33141
11
5.06699
21
-3.32608
0
LINE
8
BLACK
6
CONTINUOUS
10
5.06699
20
-3.32608
11
5.07641
21
-3.32218
0
LINE
8
BLACK
6
CONTINUOUS
10
5.07641
20
-3.32218
11
5.08633
21
-3.3198
0
LINE
8
BLACK
6
CONTINUOUS
10
5.08633
20
-3.3198
11
5.0965
21
-3.319
0
LINE
8
BLACK
6
CONTINUOUS
10
5.0965
20
-3.319
11
5.10667
21
-3.3198
0
LINE
8
BLACK
6
CONTINUOUS
10
6.3545
20
-3.29379
11
6.36219
21
-3.29612
0
LINE
8
BLACK
6
CONTINUOUS
10
6.36219
20
-3.29612
11
6.36928
21
-3.29991
0
LINE
8
BLACK
6
CONTINUOUS
10
6.36928
20
-3.29991
11
6.37549
21
-3.30501
0
LINE
8
BLACK
6
CONTINUOUS
10
6.37549
20
-3.30501
11
6.38059
21
-3.31122
0
LINE
8
BLACK
6
CONTINUOUS
10
6.38059
20
-3.31122
11
6.38438
21
-3.31831
0
LINE
8
BLACK
6
CONTINUOUS
10
6.38438
20
-3.31831
11
6.38671
21
-3.326
0
LINE
8
BLACK
6
CONTINUOUS
10
6.38671
20
-3.326
11
6.3875
21
-3.334
0
LINE
8
BLACK
6
CONTINUOUS
10
6.3875
20
-3.334
11
6.38671
21
-3.342
0
LINE
8
BLACK
6
CONTINUOUS
10
6.38671
20
-3.342
11
6.38438
21
-3.34969
0
LINE
8
BLACK
6
CONTINUOUS
10
6.38438
20
-3.34969
11
6.38059
21
-3.35678
0
LINE
8
BLACK
6
CONTINUOUS
10
6.38059
20
-3.35678
11
6.37549
21
-3.36299
0
LINE
8
BLACK
6
CONTINUOUS
10
6.37549
20
-3.36299
11
6.36928
21
-3.36809
0
LINE
8
BLACK
6
CONTINUOUS
10
6.36928
20
-3.36809
11
6.36219
21
-3.37188
0
LINE
8
BLACK
6
CONTINUOUS
10
6.36219
20
-3.37188
11
6.3545
21
-3.37421
0
LINE
8
BLACK
6
CONTINUOUS
10
6.3545
20
-3.37421
11
6.3465
21
-3.375
0
LINE
8
BLACK
6
CONTINUOUS
10
6.3465
20
-3.375
11
6.3385
21
-3.37421
0
LINE
8
BLACK
6
CONTINUOUS
10
6.3385
20
-3.37421
11
6.33081
21
-3.37188
0
LINE
8
BLACK
6
CONTINUOUS
10
6.33081
20
-3.37188
11
6.32372
21
-3.36809
0
LINE
8
BLACK
6
CONTINUOUS
10
6.32372
20
-3.36809
11
6.31751
21
-3.36299
0
LINE
8
BLACK
6
CONTINUOUS
10
6.31751
20
-3.36299
11
6.31241
21
-3.35678
0
LINE
8
BLACK
6
CONTINUOUS
10
6.31241
20
-3.35678
11
6.30862
21
-3.34969
0
LINE
8
BLACK
6
CONTINUOUS
10
6.30862
20
-3.34969
11
6.30629
21
-3.342
0
LINE
8
BLACK
6
CONTINUOUS
10
6.30629
20
-3.342
11
6.3055
21
-3.334
0
LINE
8
BLACK
6
CONTINUOUS
10
6.3055
20
-3.334
11
6.30629
21
-3.326
0
LINE
8
BLACK
6
CONTINUOUS
10
6.30629
20
-3.326
11
6.30862
21
-3.31831
0
LINE
8
BLACK
6
CONTINUOUS
10
6.30862
20
-3.31831
11
6.31241
21
-3.31122
0
LINE
8
BLACK
6
CONTINUOUS
10
6.31241
20
-3.31122
11
6.31751
21
-3.30501
0
LINE
8
BLACK
6
CONTINUOUS
10
6.31751
20
-3.30501
11
6.32372
21
-3.29991
0
LINE
8
BLACK
6
CONTINUOUS
10
6.32372
20
-3.29991
11
6.33081
21
-3.29612
0
LINE
8
BLACK
6
CONTINUOUS
10
6.33081
20
-3.29612
11
6.3385
21
-3.29379
0
LINE
8
BLACK
6
CONTINUOUS
10
6.3385
20
-3.29379
11
6.3465
21
-3.293
0
LINE
8
BLACK
6
CONTINUOUS
10
6.3465
20
-3.293
11
6.3545
21
-3.29379
0
LINE
8
BLACK
6
CONTINUOUS
10
6.2545
20
-3.29379
11
6.26219
21
-3.29612
0
LINE
8
BLACK
6
CONTINUOUS
10
6.26219
20
-3.29612
11
6.26928
21
-3.29991
0
LINE
8
BLACK
6
CONTINUOUS
10
6.26928
20
-3.29991
11
6.27549
21
-3.30501
0
LINE
8
BLACK
6
CONTINUOUS
10
6.27549
20
-3.30501
11
6.28059
21
-3.31122
0
LINE
8
BLACK
6
CONTINUOUS
10
6.28059
20
-3.31122
11
6.28438
21
-3.31831
0
LINE
8
BLACK
6
CONTINUOUS
10
6.28438
20
-3.31831
11
6.28671
21
-3.326
0
LINE
8
BLACK
6
CONTINUOUS
10
6.28671
20
-3.326
11
6.2875
21
-3.334
0
LINE
8
BLACK
6
CONTINUOUS
10
6.2875
20
-3.334
11
6.28671
21
-3.342
0
LINE
8
BLACK
6
CONTINUOUS
10
6.28671
20
-3.342
11
6.28438
21
-3.34969
0
LINE
8
BLACK
6
CONTINUOUS
10
6.28438
20
-3.34969
11
6.28059
21
-3.35678
0
LINE
8
BLACK
6
CONTINUOUS
10
6.28059
20
-3.35678
11
6.27549
21
-3.36299
0
LINE
8
BLACK
6
CONTINUOUS
10
6.27549
20
-3.36299
11
6.26928
21
-3.36809
0
LINE
8
BLACK
6
CONTINUOUS
10
6.26928
20
-3.36809
11
6.26219
21
-3.37188
0
LINE
8
BLACK
6
CONTINUOUS
10
6.26219
20
-3.37188
11
6.2545
21
-3.37421
0
LINE
8
BLACK
6
CONTINUOUS
10
6.2545
20
-3.37421
11
6.2465
21
-3.375
0
LINE
8
BLACK
6
CONTINUOUS
10
6.2465
20
-3.375
11
6.2385
21
-3.37421
0
LINE
8
BLACK
6
CONTINUOUS
10
6.2385
20
-3.37421
11
6.23081
21
-3.37188
0
LINE
8
BLACK
6
CONTINUOUS
10
6.23081
20
-3.37188
11
6.22372
21
-3.36809
0
LINE
8
BLACK
6
CONTINUOUS
10
6.22372
20
-3.36809
11
6.21751
21
-3.36299
0
LINE
8
BLACK
6
CONTINUOUS
10
6.21751
20
-3.36299
11
6.21241
21
-3.35678
0
LINE
8
BLACK
6
CONTINUOUS
10
6.21241
20
-3.35678
11
6.20862
21
-3.34969
0
LINE
8
BLACK
6
CONTINUOUS
10
6.20862
20
-3.34969
11
6.20629
21
-3.342
0
LINE
8
BLACK
6
CONTINUOUS
10
6.20629
20
-3.342
11
6.2055
21
-3.334
0
LINE
8
BLACK
6
CONTINUOUS
10
6.2055
20
-3.334
11
6.20629
21
-3.326
0
LINE
8
BLACK
6
CONTINUOUS
10
6.20629
20
-3.326
11
6.20862
21
-3.31831
0
LINE
8
BLACK
6
CONTINUOUS
10
6.20862
20
-3.31831
11
6.21241
21
-3.31122
0
LINE
8
BLACK
6
CONTINUOUS
10
6.21241
20
-3.31122
11
6.21751
21
-3.30501
0
LINE
8
BLACK
6
CONTINUOUS
10
6.21751
20
-3.30501
11
6.22372
21
-3.29991
0
LINE
8
BLACK
6
CONTINUOUS
10
6.22372
20
-3.29991
11
6.23081
21
-3.29612
0
LINE
8
BLACK
6
CONTINUOUS
10
6.23081
20
-3.29612
11
6.2385
21
-3.29379
0
LINE
8
BLACK
6
CONTINUOUS
10
6.2385
20
-3.29379
11
6.2465
21
-3.293
0
LINE
8
BLACK
6
CONTINUOUS
10
6.2465
20
-3.293
11
6.2545
21
-3.29379
0
LINE
8
BLACK
6
CONTINUOUS
10
6.1545
20
-3.29379
11
6.16219
21
-3.29612
0
LINE
8
BLACK
6
CONTINUOUS
10
6.16219
20
-3.29612
11
6.16928
21
-3.29991
0
LINE
8
BLACK
6
CONTINUOUS
10
6.16928
20
-3.29991
11
6.17549
21
-3.30501
0
LINE
8
BLACK
6
CONTINUOUS
10
6.17549
20
-3.30501
11
6.18059
21
-3.31122
0
LINE
8
BLACK
6
CONTINUOUS
10
6.18059
20
-3.31122
11
6.18438
21
-3.31831
0
LINE
8
BLACK
6
CONTINUOUS
10
6.18438
20
-3.31831
11
6.18671
21
-3.326
0
LINE
8
BLACK
6
CONTINUOUS
10
6.18671
20
-3.326
11
6.1875
21
-3.334
0
LINE
8
BLACK
6
CONTINUOUS
10
6.1875
20
-3.334
11
6.18671
21
-3.342
0
LINE
8
BLACK
6
CONTINUOUS
10
6.18671
20
-3.342
11
6.18438
21
-3.34969
0
LINE
8
BLACK
6
CONTINUOUS
10
6.18438
20
-3.34969
11
6.18059
21
-3.35678
0
LINE
8
BLACK
6
CONTINUOUS
10
6.18059
20
-3.35678
11
6.17549
21
-3.36299
0
LINE
8
BLACK
6
CONTINUOUS
10
6.17549
20
-3.36299
11
6.16928
21
-3.36809
0
LINE
8
BLACK
6
CONTINUOUS
10
6.16928
20
-3.36809
11
6.16219
21
-3.37188
0
LINE
8
BLACK
6
CONTINUOUS
10
6.16219
20
-3.37188
11
6.1545
21
-3.37421
0
LINE
8
BLACK
6
CONTINUOUS
10
6.1545
20
-3.37421
11
6.1465
21
-3.375
0
LINE
8
BLACK
6
CONTINUOUS
10
6.1465
20
-3.375
11
6.1385
21
-3.37421
0
LINE
8
BLACK
6
CONTINUOUS
10
6.1385
20
-3.37421
11
6.13081
21
-3.37188
0
LINE
8
BLACK
6
CONTINUOUS
10
6.13081
20
-3.37188
11
6.12372
21
-3.36809
0
LINE
8
BLACK
6
CONTINUOUS
10
6.12372
20
-3.36809
11
6.11751
21
-3.36299
0
LINE
8
BLACK
6
CONTINUOUS
10
6.11751
20
-3.36299
11
6.11241
21
-3.35678
0
LINE
8
BLACK
6
CONTINUOUS
10
6.11241
20
-3.35678
11
6.10862
21
-3.34969
0
LINE
8
BLACK
6
CONTINUOUS
10
6.10862
20
-3.34969
11
6.10629
21
-3.342
0
LINE
8
BLACK
6
CONTINUOUS
10
6.10629
20
-3.342
11
6.1055
21
-3.334
0
LINE
8
BLACK
6
CONTINUOUS
10
6.1055
20
-3.334
11
6.10629
21
-3.326
0
LINE
8
BLACK
6
CONTINUOUS
10
6.10629
20
-3.326
11
6.10862
21
-3.31831
0
LINE
8
BLACK
6
CONTINUOUS
10
6.10862
20
-3.31831
11
6.11241
21
-3.31122
0
LINE
8
BLACK
6
CONTINUOUS
10
6.11241
20
-3.31122
11
6.11751
21
-3.30501
0
LINE
8
BLACK
6
CONTINUOUS
10
6.11751
20
-3.30501
11
6.12372
21
-3.29991
0
LINE
8
BLACK
6
CONTINUOUS
10
6.12372
20
-3.29991
11
6.13081
21
-3.29612
0
LINE
8
BLACK
6
CONTINUOUS
10
6.13081
20
-3.29612
11
6.1385
21
-3.29379
0
LINE
8
BLACK
6
CONTINUOUS
10
6.1385
20
-3.29379
11
6.1465
21
-3.293
0
LINE
8
BLACK
6
CONTINUOUS
10
6.1465
20
-3.293
11
6.1545
21
-3.29379
0
LINE
8
BLACK
6
CONTINUOUS
10
6.0545
20
-3.29379
11
6.06219
21
-3.29612
0
LINE
8
BLACK
6
CONTINUOUS
10
6.06219
20
-3.29612
11
6.06928
21
-3.29991
0
LINE
8
BLACK
6
CONTINUOUS
10
6.06928
20
-3.29991
11
6.07549
21
-3.30501
0
LINE
8
BLACK
6
CONTINUOUS
10
6.07549
20
-3.30501
11
6.08059
21
-3.31122
0
LINE
8
BLACK
6
CONTINUOUS
10
6.08059
20
-3.31122
11
6.08438
21
-3.31831
0
LINE
8
BLACK
6
CONTINUOUS
10
6.08438
20
-3.31831
11
6.08671
21
-3.326
0
LINE
8
BLACK
6
CONTINUOUS
10
6.08671
20
-3.326
11
6.0875
21
-3.334
0
LINE
8
BLACK
6
CONTINUOUS
10
6.0875
20
-3.334
11
6.08671
21
-3.342
0
LINE
8
BLACK
6
CONTINUOUS
10
6.08671
20
-3.342
11
6.08438
21
-3.34969
0
LINE
8
BLACK
6
CONTINUOUS
10
6.08438
20
-3.34969
11
6.08059
21
-3.35678
0
LINE
8
BLACK
6
CONTINUOUS
10
6.08059
20
-3.35678
11
6.07549
21
-3.36299
0
LINE
8
BLACK
6
CONTINUOUS
10
6.07549
20
-3.36299
11
6.06928
21
-3.36809
0
LINE
8
BLACK
6
CONTINUOUS
10
6.06928
20
-3.36809
11
6.06219
21
-3.37188
0
LINE
8
BLACK
6
CONTINUOUS
10
6.06219
20
-3.37188
11
6.0545
21
-3.37421
0
LINE
8
BLACK
6
CONTINUOUS
10
6.0545
20
-3.37421
11
6.0465
21
-3.375
0
LINE
8
BLACK
6
CONTINUOUS
10
6.0465
20
-3.375
11
6.0385
21
-3.37421
0
LINE
8
BLACK
6
CONTINUOUS
10
6.0385
20
-3.37421
11
6.03081
21
-3.37188
0
LINE
8
BLACK
6
CONTINUOUS
10
6.03081
20
-3.37188
11
6.02372
21
-3.36809
0
LINE
8
BLACK
6
CONTINUOUS
10
6.02372
20
-3.36809
11
6.01751
21
-3.36299
0
LINE
8
BLACK
6
CONTINUOUS
10
6.01751
20
-3.36299
11
6.01241
21
-3.35678
0
LINE
8
BLACK
6
CONTINUOUS
10
6.01241
20
-3.35678
11
6.00862
21
-3.34969
0
LINE
8
BLACK
6
CONTINUOUS
10
6.00862
20
-3.34969
11
6.00629
21
-3.342
0
LINE
8
BLACK
6
CONTINUOUS
10
6.00629
20
-3.342
11
6.0055
21
-3.334
0
LINE
8
BLACK
6
CONTINUOUS
10
6.0055
20
-3.334
11
6.00629
21
-3.326
0
LINE
8
BLACK
6
CONTINUOUS
10
6.00629
20
-3.326
11
6.00862
21
-3.31831
0
LINE
8
BLACK
6
CONTINUOUS
10
6.00862
20
-3.31831
11
6.01241
21
-3.31122
0
LINE
8
BLACK
6
CONTINUOUS
10
6.01241
20
-3.31122
11
6.01751
21
-3.30501
0
LINE
8
BLACK
6
CONTINUOUS
10
6.01751
20
-3.30501
11
6.02372
21
-3.29991
0
LINE
8
BLACK
6
CONTINUOUS
10
6.02372
20
-3.29991
11
6.03081
21
-3.29612
0
LINE
8
BLACK
6
CONTINUOUS
10
6.03081
20
-3.29612
11
6.0385
21
-3.29379
0
LINE
8
BLACK
6
CONTINUOUS
10
6.0385
20
-3.29379
11
6.0465
21
-3.293
0
LINE
8
BLACK
6
CONTINUOUS
10
6.0465
20
-3.293
11
6.0545
21
-3.29379
0
LINE
8
BLACK
6
CONTINUOUS
10
5.9545
20
-3.29379
11
5.96219
21
-3.29612
0
LINE
8
BLACK
6
CONTINUOUS
10
5.96219
20
-3.29612
11
5.96928
21
-3.29991
0
LINE
8
BLACK
6
CONTINUOUS
10
5.96928
20
-3.29991
11
5.97549
21
-3.30501
0
LINE
8
BLACK
6
CONTINUOUS
10
5.97549
20
-3.30501
11
5.98059
21
-3.31122
0
LINE
8
BLACK
6
CONTINUOUS
10
5.98059
20
-3.31122
11
5.98438
21
-3.31831
0
LINE
8
BLACK
6
CONTINUOUS
10
5.98438
20
-3.31831
11
5.98671
21
-3.326
0
LINE
8
BLACK
6
CONTINUOUS
10
5.98671
20
-3.326
11
5.9875
21
-3.334
0
LINE
8
BLACK
6
CONTINUOUS
10
5.9875
20
-3.334
11
5.98671
21
-3.342
0
LINE
8
BLACK
6
CONTINUOUS
10
5.98671
20
-3.342
11
5.98438
21
-3.34969
0
LINE
8
BLACK
6
CONTINUOUS
10
5.98438
20
-3.34969
11
5.98059
21
-3.35678
0
LINE
8
BLACK
6
CONTINUOUS
10
5.98059
20
-3.35678
11
5.97549
21
-3.36299
0
LINE
8
BLACK
6
CONTINUOUS
10
5.97549
20
-3.36299
11
5.96928
21
-3.36809
0
LINE
8
BLACK
6
CONTINUOUS
10
5.96928
20
-3.36809
11
5.96219
21
-3.37188
0
LINE
8
BLACK
6
CONTINUOUS
10
5.96219
20
-3.37188
11
5.9545
21
-3.37421
0
LINE
8
BLACK
6
CONTINUOUS
10
5.9545
20
-3.37421
11
5.9465
21
-3.375
0
LINE
8
BLACK
6
CONTINUOUS
10
5.9465
20
-3.375
11
5.9385
21
-3.37421
0
LINE
8
BLACK
6
CONTINUOUS
10
5.9385
20
-3.37421
11
5.93081
21
-3.37188
0
LINE
8
BLACK
6
CONTINUOUS
10
5.93081
20
-3.37188
11
5.92372
21
-3.36809
0
LINE
8
BLACK
6
CONTINUOUS
10
5.92372
20
-3.36809
11
5.91751
21
-3.36299
0
LINE
8
BLACK
6
CONTINUOUS
10
5.91751
20
-3.36299
11
5.91241
21
-3.35678
0
LINE
8
BLACK
6
CONTINUOUS
10
5.91241
20
-3.35678
11
5.90862
21
-3.34969
0
LINE
8
BLACK
6
CONTINUOUS
10
5.90862
20
-3.34969
11
5.90629
21
-3.342
0
LINE
8
BLACK
6
CONTINUOUS
10
5.90629
20
-3.342
11
5.9055
21
-3.334
0
LINE
8
BLACK
6
CONTINUOUS
10
5.9055
20
-3.334
11
5.90629
21
-3.326
0
LINE
8
BLACK
6
CONTINUOUS
10
5.90629
20
-3.326
11
5.90862
21
-3.31831
0
LINE
8
BLACK
6
CONTINUOUS
10
5.90862
20
-3.31831
11
5.91241
21
-3.31122
0
LINE
8
BLACK
6
CONTINUOUS
10
5.91241
20
-3.31122
11
5.91751
21
-3.30501
0
LINE
8
BLACK
6
CONTINUOUS
10
5.91751
20
-3.30501
11
5.92372
21
-3.29991
0
LINE
8
BLACK
6
CONTINUOUS
10
5.92372
20
-3.29991
11
5.93081
21
-3.29612
0
LINE
8
BLACK
6
CONTINUOUS
10
5.93081
20
-3.29612
11
5.9385
21
-3.29379
0
LINE
8
BLACK
6
CONTINUOUS
10
5.9385
20
-3.29379
11
5.9465
21
-3.293
0
LINE
8
BLACK
6
CONTINUOUS
10
5.9465
20
-3.293
11
5.9545
21
-3.29379
0
LINE
8
BLACK
6
CONTINUOUS
10
5.8545
20
-3.29379
11
5.86219
21
-3.29612
0
LINE
8
BLACK
6
CONTINUOUS
10
5.86219
20
-3.29612
11
5.86928
21
-3.29991
0
LINE
8
BLACK
6
CONTINUOUS
10
5.86928
20
-3.29991
11
5.87549
21
-3.30501
0
LINE
8
BLACK
6
CONTINUOUS
10
5.87549
20
-3.30501
11
5.88059
21
-3.31122
0
LINE
8
BLACK
6
CONTINUOUS
10
5.88059
20
-3.31122
11
5.88438
21
-3.31831
0
LINE
8
BLACK
6
CONTINUOUS
10
5.88438
20
-3.31831
11
5.88671
21
-3.326
0
LINE
8
BLACK
6
CONTINUOUS
10
5.88671
20
-3.326
11
5.8875
21
-3.334
0
LINE
8
BLACK
6
CONTINUOUS
10
5.8875
20
-3.334
11
5.88671
21
-3.342
0
LINE
8
BLACK
6
CONTINUOUS
10
5.88671
20
-3.342
11
5.88438
21
-3.34969
0
LINE
8
BLACK
6
CONTINUOUS
10
5.88438
20
-3.34969
11
5.88059
21
-3.35678
0
LINE
8
BLACK
6
CONTINUOUS
10
5.88059
20
-3.35678
11
5.87549
21
-3.36299
0
LINE
8
BLACK
6
CONTINUOUS
10
5.87549
20
-3.36299
11
5.86928
21
-3.36809
0
LINE
8
BLACK
6
CONTINUOUS
10
5.86928
20
-3.36809
11
5.86219
21
-3.37188
0
LINE
8
BLACK
6
CONTINUOUS
10
5.86219
20
-3.37188
11
5.8545
21
-3.37421
0
LINE
8
BLACK
6
CONTINUOUS
10
5.8545
20
-3.37421
11
5.8465
21
-3.375
0
LINE
8
BLACK
6
CONTINUOUS
10
5.8465
20
-3.375
11
5.8385
21
-3.37421
0
LINE
8
BLACK
6
CONTINUOUS
10
5.8385
20
-3.37421
11
5.83081
21
-3.37188
0
LINE
8
BLACK
6
CONTINUOUS
10
5.83081
20
-3.37188
11
5.82372
21
-3.36809
0
LINE
8
BLACK
6
CONTINUOUS
10
5.82372
20
-3.36809
11
5.81751
21
-3.36299
0
LINE
8
BLACK
6
CONTINUOUS
10
5.81751
20
-3.36299
11
5.81241
21
-3.35678
0
LINE
8
BLACK
6
CONTINUOUS
10
5.81241
20
-3.35678
11
5.80862
21
-3.34969
0
LINE
8
BLACK
6
CONTINUOUS
10
5.80862
20
-3.34969
11
5.80629
21
-3.342
0
LINE
8
BLACK
6
CONTINUOUS
10
5.80629
20
-3.342
11
5.8055
21
-3.334
0
LINE
8
BLACK
6
CONTINUOUS
10
5.8055
20
-3.334
11
5.80629
21
-3.326
0
LINE
8
BLACK
6
CONTINUOUS
10
5.80629
20
-3.326
11
5.80862
21
-3.31831
0
LINE
8
BLACK
6
CONTINUOUS
10
5.80862
20
-3.31831
11
5.81241
21
-3.31122
0
LINE
8
BLACK
6
CONTINUOUS
10
5.81241
20
-3.31122
11
5.81751
21
-3.30501
0
LINE
8
BLACK
6
CONTINUOUS
10
5.81751
20
-3.30501
11
5.82372
21
-3.29991
0
LINE
8
BLACK
6
CONTINUOUS
10
5.82372
20
-3.29991
11
5.83081
21
-3.29612
0
LINE
8
BLACK
6
CONTINUOUS
10
5.83081
20
-3.29612
11
5.8385
21
-3.29379
0
LINE
8
BLACK
6
CONTINUOUS
10
5.8385
20
-3.29379
11
5.8465
21
-3.293
0
LINE
8
BLACK
6
CONTINUOUS
10
5.8465
20
-3.293
11
5.8545
21
-3.29379
0
LINE
8
BLACK
6
CONTINUOUS
10
5.7545
20
-3.29379
11
5.76219
21
-3.29612
0
LINE
8
BLACK
6
CONTINUOUS
10
5.76219
20
-3.29612
11
5.76928
21
-3.29991
0
LINE
8
BLACK
6
CONTINUOUS
10
5.76928
20
-3.29991
11
5.77549
21
-3.30501
0
LINE
8
BLACK
6
CONTINUOUS
10
5.77549
20
-3.30501
11
5.78059
21
-3.31122
0
LINE
8
BLACK
6
CONTINUOUS
10
5.78059
20
-3.31122
11
5.78438
21
-3.31831
0
LINE
8
BLACK
6
CONTINUOUS
10
5.78438
20
-3.31831
11
5.78671
21
-3.326
0
LINE
8
BLACK
6
CONTINUOUS
10
5.78671
20
-3.326
11
5.7875
21
-3.334
0
LINE
8
BLACK
6
CONTINUOUS
10
5.7875
20
-3.334
11
5.78671
21
-3.342
0
LINE
8
BLACK
6
CONTINUOUS
10
5.78671
20
-3.342
11
5.78438
21
-3.34969
0
LINE
8
BLACK
6
CONTINUOUS
10
5.78438
20
-3.34969
11
5.78059
21
-3.35678
0
LINE
8
BLACK
6
CONTINUOUS
10
5.78059
20
-3.35678
11
5.77549
21
-3.36299
0
LINE
8
BLACK
6
CONTINUOUS
10
5.77549
20
-3.36299
11
5.76928
21
-3.36809
0
LINE
8
BLACK
6
CONTINUOUS
10
5.76928
20
-3.36809
11
5.76219
21
-3.37188
0
LINE
8
BLACK
6
CONTINUOUS
10
5.76219
20
-3.37188
11
5.7545
21
-3.37421
0
LINE
8
BLACK
6
CONTINUOUS
10
5.7545
20
-3.37421
11
5.7465
21
-3.375
0
LINE
8
BLACK
6
CONTINUOUS
10
5.7465
20
-3.375
11
5.7385
21
-3.37421
0
LINE
8
BLACK
6
CONTINUOUS
10
5.7385
20
-3.37421
11
5.73081
21
-3.37188
0
LINE
8
BLACK
6
CONTINUOUS
10
5.73081
20
-3.37188
11
5.72372
21
-3.36809
0
LINE
8
BLACK
6
CONTINUOUS
10
5.72372
20
-3.36809
11
5.71751
21
-3.36299
0
LINE
8
BLACK
6
CONTINUOUS
10
5.71751
20
-3.36299
11
5.71241
21
-3.35678
0
LINE
8
BLACK
6
CONTINUOUS
10
5.71241
20
-3.35678
11
5.70862
21
-3.34969
0
LINE
8
BLACK
6
CONTINUOUS
10
5.70862
20
-3.34969
11
5.70629
21
-3.342
0
LINE
8
BLACK
6
CONTINUOUS
10
5.70629
20
-3.342
11
5.7055
21
-3.334
0
LINE
8
BLACK
6
CONTINUOUS
10
5.7055
20
-3.334
11
5.70629
21
-3.326
0
LINE
8
BLACK
6
CONTINUOUS
10
5.70629
20
-3.326
11
5.70862
21
-3.31831
0
LINE
8
BLACK
6
CONTINUOUS
10
5.70862
20
-3.31831
11
5.71241
21
-3.31122
0
LINE
8
BLACK
6
CONTINUOUS
10
5.71241
20
-3.31122
11
5.71751
21
-3.30501
0
LINE
8
BLACK
6
CONTINUOUS
10
5.71751
20
-3.30501
11
5.72372
21
-3.29991
0
LINE
8
BLACK
6
CONTINUOUS
10
5.72372
20
-3.29991
11
5.73081
21
-3.29612
0
LINE
8
BLACK
6
CONTINUOUS
10
5.73081
20
-3.29612
11
5.7385
21
-3.29379
0
LINE
8
BLACK
6
CONTINUOUS
10
5.7385
20
-3.29379
11
5.7465
21
-3.293
0
LINE
8
BLACK
6
CONTINUOUS
10
5.7465
20
-3.293
11
5.7545
21
-3.29379
0
LINE
8
BLACK
6
CONTINUOUS
10
5.6545
20
-3.29379
11
5.66219
21
-3.29612
0
LINE
8
BLACK
6
CONTINUOUS
10
5.66219
20
-3.29612
11
5.66928
21
-3.29991
0
LINE
8
BLACK
6
CONTINUOUS
10
5.66928
20
-3.29991
11
5.67549
21
-3.30501
0
LINE
8
BLACK
6
CONTINUOUS
10
5.67549
20
-3.30501
11
5.68059
21
-3.31122
0
LINE
8
BLACK
6
CONTINUOUS
10
5.68059
20
-3.31122
11
5.68438
21
-3.31831
0
LINE
8
BLACK
6
CONTINUOUS
10
5.68438
20
-3.31831
11
5.68671
21
-3.326
0
LINE
8
BLACK
6
CONTINUOUS
10
5.68671
20
-3.326
11
5.6875
21
-3.334
0
LINE
8
BLACK
6
CONTINUOUS
10
5.6875
20
-3.334
11
5.68671
21
-3.342
0
LINE
8
BLACK
6
CONTINUOUS
10
5.68671
20
-3.342
11
5.68438
21
-3.34969
0
LINE
8
BLACK
6
CONTINUOUS
10
5.68438
20
-3.34969
11
5.68059
21
-3.35678
0
LINE
8
BLACK
6
CONTINUOUS
10
5.68059
20
-3.35678
11
5.67549
21
-3.36299
0
LINE
8
BLACK
6
CONTINUOUS
10
5.67549
20
-3.36299
11
5.66928
21
-3.36809
0
LINE
8
BLACK
6
CONTINUOUS
10
5.66928
20
-3.36809
11
5.66219
21
-3.37188
0
LINE
8
BLACK
6
CONTINUOUS
10
5.66219
20
-3.37188
11
5.6545
21
-3.37421
0
LINE
8
BLACK
6
CONTINUOUS
10
5.6545
20
-3.37421
11
5.6465
21
-3.375
0
LINE
8
BLACK
6
CONTINUOUS
10
5.6465
20
-3.375
11
5.6385
21
-3.37421
0
LINE
8
BLACK
6
CONTINUOUS
10
5.6385
20
-3.37421
11
5.63081
21
-3.37188
0
LINE
8
BLACK
6
CONTINUOUS
10
5.63081
20
-3.37188
11
5.62372
21
-3.36809
0
LINE
8
BLACK
6
CONTINUOUS
10
5.62372
20
-3.36809
11
5.61751
21
-3.36299
0
LINE
8
BLACK
6
CONTINUOUS
10
5.61751
20
-3.36299
11
5.61241
21
-3.35678
0
LINE
8
BLACK
6
CONTINUOUS
10
5.61241
20
-3.35678
11
5.60862
21
-3.34969
0
LINE
8
BLACK
6
CONTINUOUS
10
5.60862
20
-3.34969
11
5.60629
21
-3.342
0
LINE
8
BLACK
6
CONTINUOUS
10
5.60629
20
-3.342
11
5.6055
21
-3.334
0
LINE
8
BLACK
6
CONTINUOUS
10
5.6055
20
-3.334
11
5.60629
21
-3.326
0
LINE
8
BLACK
6
CONTINUOUS
10
5.60629
20
-3.326
11
5.60862
21
-3.31831
0
LINE
8
BLACK
6
CONTINUOUS
10
5.60862
20
-3.31831
11
5.61241
21
-3.31122
0
LINE
8
BLACK
6
CONTINUOUS
10
5.61241
20
-3.31122
11
5.61751
21
-3.30501
0
LINE
8
BLACK
6
CONTINUOUS
10
5.61751
20
-3.30501
11
5.62372
21
-3.29991
0
LINE
8
BLACK
6
CONTINUOUS
10
5.62372
20
-3.29991
11
5.63081
21
-3.29612
0
LINE
8
BLACK
6
CONTINUOUS
10
5.63081
20
-3.29612
11
5.6385
21
-3.29379
0
LINE
8
BLACK
6
CONTINUOUS
10
5.6385
20
-3.29379
11
5.6465
21
-3.293
0
LINE
8
BLACK
6
CONTINUOUS
10
5.6465
20
-3.293
11
5.6545
21
-3.29379
0
LINE
8
BLACK
6
CONTINUOUS
10
5.5545
20
-3.29379
11
5.56219
21
-3.29612
0
LINE
8
BLACK
6
CONTINUOUS
10
5.56219
20
-3.29612
11
5.56928
21
-3.29991
0
LINE
8
BLACK
6
CONTINUOUS
10
5.56928
20
-3.29991
11
5.57549
21
-3.30501
0
LINE
8
BLACK
6
CONTINUOUS
10
5.57549
20
-3.30501
11
5.58059
21
-3.31122
0
LINE
8
BLACK
6
CONTINUOUS
10
5.58059
20
-3.31122
11
5.58438
21
-3.31831
0
LINE
8
BLACK
6
CONTINUOUS
10
5.58438
20
-3.31831
11
5.58671
21
-3.326
0
LINE
8
BLACK
6
CONTINUOUS
10
5.58671
20
-3.326
11
5.5875
21
-3.334
0
LINE
8
BLACK
6
CONTINUOUS
10
5.5875
20
-3.334
11
5.58671
21
-3.342
0
LINE
8
BLACK
6
CONTINUOUS
10
5.58671
20
-3.342
11
5.58438
21
-3.34969
0
LINE
8
BLACK
6
CONTINUOUS
10
5.58438
20
-3.34969
11
5.58059
21
-3.35678
0
LINE
8
BLACK
6
CONTINUOUS
10
5.58059
20
-3.35678
11
5.57549
21
-3.36299
0
LINE
8
BLACK
6
CONTINUOUS
10
5.57549
20
-3.36299
11
5.56928
21
-3.36809
0
LINE
8
BLACK
6
CONTINUOUS
10
5.56928
20
-3.36809
11
5.56219
21
-3.37188
0
LINE
8
BLACK
6
CONTINUOUS
10
5.56219
20
-3.37188
11
5.5545
21
-3.37421
0
LINE
8
BLACK
6
CONTINUOUS
10
5.5545
20
-3.37421
11
5.5465
21
-3.375
0
LINE
8
BLACK
6
CONTINUOUS
10
5.5465
20
-3.375
11
5.5385
21
-3.37421
0
LINE
8
BLACK
6
CONTINUOUS
10
5.5385
20
-3.37421
11
5.53081
21
-3.37188
0
LINE
8
BLACK
6
CONTINUOUS
10
5.53081
20
-3.37188
11
5.52372
21
-3.36809
0
LINE
8
BLACK
6
CONTINUOUS
10
5.52372
20
-3.36809
11
5.51751
21
-3.36299
0
LINE
8
BLACK
6
CONTINUOUS
10
5.51751
20
-3.36299
11
5.51241
21
-3.35678
0
LINE
8
BLACK
6
CONTINUOUS
10
5.51241
20
-3.35678
11
5.50862
21
-3.34969
0
LINE
8
BLACK
6
CONTINUOUS
10
5.50862
20
-3.34969
11
5.50629
21
-3.342
0
LINE
8
BLACK
6
CONTINUOUS
10
5.50629
20
-3.342
11
5.5055
21
-3.334
0
LINE
8
BLACK
6
CONTINUOUS
10
5.5055
20
-3.334
11
5.50629
21
-3.326
0
LINE
8
BLACK
6
CONTINUOUS
10
5.50629
20
-3.326
11
5.50862
21
-3.31831
0
LINE
8
BLACK
6
CONTINUOUS
10
5.50862
20
-3.31831
11
5.51241
21
-3.31122
0
LINE
8
BLACK
6
CONTINUOUS
10
5.51241
20
-3.31122
11
5.51751
21
-3.30501
0
LINE
8
BLACK
6
CONTINUOUS
10
5.51751
20
-3.30501
11
5.52372
21
-3.29991
0
LINE
8
BLACK
6
CONTINUOUS
10
5.52372
20
-3.29991
11
5.53081
21
-3.29612
0
LINE
8
BLACK
6
CONTINUOUS
10
5.53081
20
-3.29612
11
5.5385
21
-3.29379
0
LINE
8
BLACK
6
CONTINUOUS
10
5.5385
20
-3.29379
11
5.5465
21
-3.293
0
LINE
8
BLACK
6
CONTINUOUS
10
5.5465
20
-3.293
11
5.5545
21
-3.29379
0
LINE
8
BLACK
6
CONTINUOUS
10
6.6766
20
-3.29331
11
6.6812
21
-3.29565
0
LINE
8
BLACK
6
CONTINUOUS
10
6.6812
20
-3.29565
11
6.68485
21
-3.2993
0
LINE
8
BLACK
6
CONTINUOUS
10
6.68485
20
-3.2993
11
6.68719
21
-3.3039
0
LINE
8
BLACK
6
CONTINUOUS
10
6.68719
20
-3.3039
11
6.688
21
-3.309
0
LINE
8
BLACK
6
CONTINUOUS
10
6.688
20
-3.309
11
6.68719
21
-3.3141
0
LINE
8
BLACK
6
CONTINUOUS
10
6.68719
20
-3.3141
11
6.68485
21
-3.3187
0
LINE
8
BLACK
6
CONTINUOUS
10
6.68485
20
-3.3187
11
6.6812
21
-3.32235
0
LINE
8
BLACK
6
CONTINUOUS
10
6.6812
20
-3.32235
11
6.6766
21
-3.32469
0
LINE
8
BLACK
6
CONTINUOUS
10
6.6766
20
-3.32469
11
6.6715
21
-3.3255
0
LINE
8
BLACK
6
CONTINUOUS
10
6.6715
20
-3.3255
11
6.6664
21
-3.32469
0
LINE
8
BLACK
6
CONTINUOUS
10
6.6664
20
-3.32469
11
6.6618
21
-3.32235
0
LINE
8
BLACK
6
CONTINUOUS
10
6.6618
20
-3.32235
11
6.65815
21
-3.3187
0
LINE
8
BLACK
6
CONTINUOUS
10
6.65815
20
-3.3187
11
6.65581
21
-3.3141
0
LINE
8
BLACK
6
CONTINUOUS
10
6.65581
20
-3.3141
11
6.655
21
-3.309
0
LINE
8
BLACK
6
CONTINUOUS
10
6.655
20
-3.309
11
6.65581
21
-3.3039
0
LINE
8
BLACK
6
CONTINUOUS
10
6.65581
20
-3.3039
11
6.65815
21
-3.2993
0
LINE
8
BLACK
6
CONTINUOUS
10
6.65815
20
-3.2993
11
6.6618
21
-3.29565
0
LINE
8
BLACK
6
CONTINUOUS
10
6.6618
20
-3.29565
11
6.6664
21
-3.29331
0
LINE
8
BLACK
6
CONTINUOUS
10
6.6664
20
-3.29331
11
6.6715
21
-3.2925
0
LINE
8
BLACK
6
CONTINUOUS
10
6.6715
20
-3.2925
11
6.6766
21
-3.29331
0
LINE
8
BLACK
6
CONTINUOUS
10
6.6971
20
-3.2802
11
6.69774
21
-3.2802
0
LINE
8
BLACK
6
CONTINUOUS
10
6.69774
20
-3.2802
11
6.69825
21
-3.28057
0
LINE
8
BLACK
6
CONTINUOUS
10
6.69825
20
-3.28057
11
6.69885
21
-3.28076
0
LINE
8
BLACK
6
CONTINUOUS
10
6.69885
20
-3.28076
11
6.69922
21
-3.28128
0
LINE
8
BLACK
6
CONTINUOUS
10
6.69922
20
-3.28128
11
6.69974
21
-3.28165
0
LINE
8
BLACK
6
CONTINUOUS
10
6.69974
20
-3.28165
11
6.69993
21
-3.28225
0
LINE
8
BLACK
6
CONTINUOUS
10
6.69993
20
-3.28225
11
6.7003
21
-3.28276
0
LINE
8
BLACK
6
CONTINUOUS
10
6.7003
20
-3.28276
11
6.7003
21
-3.2834
0
LINE
8
BLACK
6
CONTINUOUS
10
6.7003
20
-3.2834
11
6.7005
21
-3.284
0
LINE
8
BLACK
6
CONTINUOUS
10
6.7005
20
-3.284
11
6.7005
21
-4.984
0
LINE
8
BLACK
6
CONTINUOUS
10
6.7005
20
-4.984
11
6.7003
21
-4.9846
0
LINE
8
BLACK
6
CONTINUOUS
10
6.7003
20
-4.9846
11
6.7003
21
-4.98524
0
LINE
8
BLACK
6
CONTINUOUS
10
6.7003
20
-4.98524
11
6.69993
21
-4.98575
0
LINE
8
BLACK
6
CONTINUOUS
10
6.69993
20
-4.98575
11
6.69974
21
-4.98635
0
LINE
8
BLACK
6
CONTINUOUS
10
6.69974
20
-4.98635
11
6.69922
21
-4.98672
0
LINE
8
BLACK
6
CONTINUOUS
10
6.69922
20
-4.98672
11
6.69885
21
-4.98724
0
LINE
8
BLACK
6
CONTINUOUS
10
6.69885
20
-4.98724
11
6.69825
21
-4.98743
0
LINE
8
BLACK
6
CONTINUOUS
10
6.69825
20
-4.98743
11
6.69774
21
-4.9878
0
LINE
8
BLACK
6
CONTINUOUS
10
6.69774
20
-4.9878
11
6.6971
21
-4.9878
0
LINE
8
BLACK
6
CONTINUOUS
10
6.6971
20
-4.9878
11
6.6965
21
-4.988
0
LINE
8
BLACK
6
CONTINUOUS
10
6.6965
20
-4.988
11
4.9965
21
-4.988
0
LINE
8
BLACK
6
CONTINUOUS
10
4.9965
20
-4.988
11
4.9959
21
-4.9878
0
LINE
8
BLACK
6
CONTINUOUS
10
4.9959
20
-4.9878
11
4.99526
21
-4.9878
0
LINE
8
BLACK
6
CONTINUOUS
10
4.99526
20
-4.9878
11
4.99475
21
-4.98743
0
LINE
8
BLACK
6
CONTINUOUS
10
4.99475
20
-4.98743
11
4.99415
21
-4.98724
0
LINE
8
BLACK
6
CONTINUOUS
10
4.99415
20
-4.98724
11
4.99378
21
-4.98672
0
LINE
8
BLACK
6
CONTINUOUS
10
4.99378
20
-4.98672
11
4.99326
21
-4.98635
0
LINE
8
BLACK
6
CONTINUOUS
10
4.99326
20
-4.98635
11
4.99307
21
-4.98575
0
LINE
8
BLACK
6
CONTINUOUS
10
4.99307
20
-4.98575
11
4.9927
21
-4.98524
0
LINE
8
BLACK
6
CONTINUOUS
10
4.9927
20
-4.98524
11
4.9927
21
-4.9846
0
LINE
8
BLACK
6
CONTINUOUS
10
4.9927
20
-4.9846
11
4.9925
21
-4.984
0
LINE
8
BLACK
6
CONTINUOUS
10
4.9925
20
-4.984
11
4.9925
21
-3.284
0
LINE
8
BLACK
6
CONTINUOUS
10
4.9925
20
-3.284
11
4.9927
21
-3.2834
0
LINE
8
BLACK
6
CONTINUOUS
10
4.9927
20
-3.2834
11
4.9927
21
-3.28276
0
LINE
8
BLACK
6
CONTINUOUS
10
4.9927
20
-3.28276
11
4.99307
21
-3.28225
0
LINE
8
BLACK
6
CONTINUOUS
10
4.99307
20
-3.28225
11
4.99326
21
-3.28165
0
LINE
8
BLACK
6
CONTINUOUS
10
4.99326
20
-3.28165
11
4.99378
21
-3.28128
0
LINE
8
BLACK
6
CONTINUOUS
10
4.99378
20
-3.28128
11
4.99415
21
-3.28076
0
LINE
8
BLACK
6
CONTINUOUS
10
4.99415
20
-3.28076
11
4.99475
21
-3.28057
0
LINE
8
BLACK
6
CONTINUOUS
10
4.99475
20
-3.28057
11
4.99526
21
-3.2802
0
LINE
8
BLACK
6
CONTINUOUS
10
4.99526
20
-3.2802
11
4.9959
21
-3.2802
0
LINE
8
BLACK
6
CONTINUOUS
10
4.9959
20
-3.2802
11
4.9965
21
-3.28
0
LINE
8
BLACK
6
CONTINUOUS
10
4.9965
20
-3.28
11
6.6965
21
-3.28
0
LINE
8
BLACK
6
CONTINUOUS
10
6.6965
20
-3.28
11
6.6971
21
-3.2802
0
LINE
8
BLACK
6
CONTINUOUS
10
5.0005
20
-3.288
11
5.0005
21
-4.98
0
LINE
8
BLACK
6
CONTINUOUS
10
5.0005
20
-4.98
11
6.6925
21
-4.98
0
LINE
8
BLACK
6
CONTINUOUS
10
6.6925
20
-4.98
11
6.6925
21
-3.288
0
LINE
8
BLACK
6
CONTINUOUS
10
6.6925
20
-3.288
11
5.0005
21
-3.288
  0
ENDSEC
  0
EOF
