  0
SECTION
  2
HEADER
  9
$ANGBASE
  50
0.0
  9
$ANGDIR
  70
1
  9
$MEASUREMENT
  70
0
  0
ENDSEC
  0
SECTION
  2
TABLES
  0
TABLE
  2
LTYPE
  70
4
  0
LTYPE
  5
40F
  2
CONTINUOUS
  70
0
  3
Solid line
  72
65
  73
0
  40
0.0
  0
LTYPE
  5
410
  2
DASHDOT
 70
0
  3
Dash Dot ____ _ ____ _
 72
65
 73
4
 40
2.0
 49
1.25
 49
-0.25
 49
0.25
 49
-0.25
  0
LTYPE
  5
411
  2
DASHED
 70
0
  3
Dashed __ __ __ __ __
 72
65
 73
2
 40
0.75
 49
0.5
 49
-0.25
  0
LTYPE
  5
43B
  2
DOTTED
 70
0
  3
Dotted .  .  .  .
 72
65
 73
2
 40
0.2
 49
0.0
 49
-0.2
  0
ENDTAB
  0
TABLE
  2
STYLE
  70
4
  0
STYLE
  2
KICAD
  70
0
  40
0
  41
1
  42
1
  50
0
  71
0
  3
isocp.shx
  0
STYLE
  2
KICADB
  70
0
  40
0
  41
1
  42
1
  50
0
  71
0
  3
isocp.shx
  0
STYLE
  2
KICADI
  70
0
  40
0
  41
1
  42
1
  50
15
  71
0
  3
isocp.shx
  0
STYLE
  2
KICADBI
  70
0
  40
0
  41
1
  42
1
  50
15
  71
0
  3
isocp.shx
  0
ENDTAB
  0
TABLE
  2
LAYER
  70
1
  0
LAYER
  2
BLACK
  70
0
  62
7
  6
CONTINUOUS
  0
ENDTAB
  0
ENDSEC
  0
SECTION
  2
ENTITIES
0
LINE
8
BLACK
6
CONTINUOUS
10
6.6971
20
-3.2802
11
6.69774
21
-3.2802
0
LINE
8
BLACK
6
CONTINUOUS
10
6.69774
20
-3.2802
11
6.69825
21
-3.28057
0
LINE
8
BLACK
6
CONTINUOUS
10
6.69825
20
-3.28057
11
6.69885
21
-3.28076
0
LINE
8
BLACK
6
CONTINUOUS
10
6.69885
20
-3.28076
11
6.69922
21
-3.28128
0
LINE
8
BLACK
6
CONTINUOUS
10
6.69922
20
-3.28128
11
6.69974
21
-3.28165
0
LINE
8
BLACK
6
CONTINUOUS
10
6.69974
20
-3.28165
11
6.69993
21
-3.28225
0
LINE
8
BLACK
6
CONTINUOUS
10
6.69993
20
-3.28225
11
6.7003
21
-3.28276
0
LINE
8
BLACK
6
CONTINUOUS
10
6.7003
20
-3.28276
11
6.7003
21
-3.2834
0
LINE
8
BLACK
6
CONTINUOUS
10
6.7003
20
-3.2834
11
6.7005
21
-3.284
0
LINE
8
BLACK
6
CONTINUOUS
10
6.7005
20
-3.284
11
6.7005
21
-4.984
0
LINE
8
BLACK
6
CONTINUOUS
10
6.7005
20
-4.984
11
6.7003
21
-4.9846
0
LINE
8
BLACK
6
CONTINUOUS
10
6.7003
20
-4.9846
11
6.7003
21
-4.98524
0
LINE
8
BLACK
6
CONTINUOUS
10
6.7003
20
-4.98524
11
6.69993
21
-4.98575
0
LINE
8
BLACK
6
CONTINUOUS
10
6.69993
20
-4.98575
11
6.69974
21
-4.98635
0
LINE
8
BLACK
6
CONTINUOUS
10
6.69974
20
-4.98635
11
6.69922
21
-4.98672
0
LINE
8
BLACK
6
CONTINUOUS
10
6.69922
20
-4.98672
11
6.69885
21
-4.98724
0
LINE
8
BLACK
6
CONTINUOUS
10
6.69885
20
-4.98724
11
6.69825
21
-4.98743
0
LINE
8
BLACK
6
CONTINUOUS
10
6.69825
20
-4.98743
11
6.69774
21
-4.9878
0
LINE
8
BLACK
6
CONTINUOUS
10
6.69774
20
-4.9878
11
6.6971
21
-4.9878
0
LINE
8
BLACK
6
CONTINUOUS
10
6.6971
20
-4.9878
11
6.6965
21
-4.988
0
LINE
8
BLACK
6
CONTINUOUS
10
6.6965
20
-4.988
11
4.9965
21
-4.988
0
LINE
8
BLACK
6
CONTINUOUS
10
4.9965
20
-4.988
11
4.9959
21
-4.9878
0
LINE
8
BLACK
6
CONTINUOUS
10
4.9959
20
-4.9878
11
4.99526
21
-4.9878
0
LINE
8
BLACK
6
CONTINUOUS
10
4.99526
20
-4.9878
11
4.99475
21
-4.98743
0
LINE
8
BLACK
6
CONTINUOUS
10
4.99475
20
-4.98743
11
4.99415
21
-4.98724
0
LINE
8
BLACK
6
CONTINUOUS
10
4.99415
20
-4.98724
11
4.99378
21
-4.98672
0
LINE
8
BLACK
6
CONTINUOUS
10
4.99378
20
-4.98672
11
4.99326
21
-4.98635
0
LINE
8
BLACK
6
CONTINUOUS
10
4.99326
20
-4.98635
11
4.99307
21
-4.98575
0
LINE
8
BLACK
6
CONTINUOUS
10
4.99307
20
-4.98575
11
4.9927
21
-4.98524
0
LINE
8
BLACK
6
CONTINUOUS
10
4.9927
20
-4.98524
11
4.9927
21
-4.9846
0
LINE
8
BLACK
6
CONTINUOUS
10
4.9927
20
-4.9846
11
4.9925
21
-4.984
0
LINE
8
BLACK
6
CONTINUOUS
10
4.9925
20
-4.984
11
4.9925
21
-3.284
0
LINE
8
BLACK
6
CONTINUOUS
10
4.9925
20
-3.284
11
4.9927
21
-3.2834
0
LINE
8
BLACK
6
CONTINUOUS
10
4.9927
20
-3.2834
11
4.9927
21
-3.28276
0
LINE
8
BLACK
6
CONTINUOUS
10
4.9927
20
-3.28276
11
4.99307
21
-3.28225
0
LINE
8
BLACK
6
CONTINUOUS
10
4.99307
20
-3.28225
11
4.99326
21
-3.28165
0
LINE
8
BLACK
6
CONTINUOUS
10
4.99326
20
-3.28165
11
4.99378
21
-3.28128
0
LINE
8
BLACK
6
CONTINUOUS
10
4.99378
20
-3.28128
11
4.99415
21
-3.28076
0
LINE
8
BLACK
6
CONTINUOUS
10
4.99415
20
-3.28076
11
4.99475
21
-3.28057
0
LINE
8
BLACK
6
CONTINUOUS
10
4.99475
20
-3.28057
11
4.99526
21
-3.2802
0
LINE
8
BLACK
6
CONTINUOUS
10
4.99526
20
-3.2802
11
4.9959
21
-3.2802
0
LINE
8
BLACK
6
CONTINUOUS
10
4.9959
20
-3.2802
11
4.9965
21
-3.28
0
LINE
8
BLACK
6
CONTINUOUS
10
4.9965
20
-3.28
11
6.6965
21
-3.28
0
LINE
8
BLACK
6
CONTINUOUS
10
6.6965
20
-3.28
11
6.6971
21
-3.2802
0
LINE
8
BLACK
6
CONTINUOUS
10
5.0005
20
-3.288
11
5.0005
21
-4.98
0
LINE
8
BLACK
6
CONTINUOUS
10
5.0005
20
-4.98
11
6.6925
21
-4.98
0
LINE
8
BLACK
6
CONTINUOUS
10
6.6925
20
-4.98
11
6.6925
21
-3.288
0
LINE
8
BLACK
6
CONTINUOUS
10
6.6925
20
-3.288
11
5.0005
21
-3.288
  0
ENDSEC
  0
EOF
